<mxfile host="app.diagrams.net" agent="Mozilla/5.0 (Macintosh; Intel Mac OS X 10_15_7) AppleWebKit/537.36 (KHTML, like Gecko) Chrome/136.0.0.0 Safari/537.36" version="27.0.6">
  <diagram name="Page-1" id="CG38CLnWH1x6Pj0R21NJ">
    <mxGraphModel dx="1018" dy="655" grid="1" gridSize="10" guides="1" tooltips="1" connect="1" arrows="1" fold="1" page="1" pageScale="1" pageWidth="827" pageHeight="1169" math="0" shadow="0">
      <root>
        <mxCell id="0" />
        <mxCell id="1" parent="0" />
        <mxCell id="yjropSwCNwgdsyY9ociL-60" value="" style="group" vertex="1" connectable="0" parent="1">
          <mxGeometry x="40" y="40" width="560" height="400" as="geometry" />
        </mxCell>
        <mxCell id="yjropSwCNwgdsyY9ociL-16" value="" style="rounded=1;whiteSpace=wrap;html=1;glass=0;shadow=0;gradientColor=none;arcSize=5;container=0;movable=0;resizable=0;rotatable=0;deletable=0;editable=0;locked=1;connectable=0;" vertex="1" parent="yjropSwCNwgdsyY9ociL-60">
          <mxGeometry width="560" height="400" as="geometry" />
        </mxCell>
        <mxCell id="yjropSwCNwgdsyY9ociL-19" value="" style="rounded=1;whiteSpace=wrap;html=1;container=0;movable=0;resizable=0;rotatable=0;deletable=0;editable=0;locked=1;connectable=0;" vertex="1" parent="yjropSwCNwgdsyY9ociL-60">
          <mxGeometry width="88.42105263157893" height="85.33333333333334" as="geometry" />
        </mxCell>
        <mxCell id="yjropSwCNwgdsyY9ociL-17" value="" style="shape=image;verticalLabelPosition=bottom;verticalAlign=top;imageAspect=0;aspect=fixed;image=data:image/svg+xml,PHN2ZyB4bWxucz0iaHR0cDovL3d3dy53My5vcmcvMjAwMC9zdmciIHhtbG5zOnhsaW5rPSImYW1wO25zX3hsaW5rOyIgeG1sOnNwYWNlPSJwcmVzZXJ2ZSIgb3ZlcmZsb3c9InZpc2libGUiIHZpZXdCb3g9IjAgMCAxOC4zOTY5OTkzNTkxMzA4NiA0Mi4zNjMwMDI3NzcwOTk2MSIgaGVpZ2h0PSI0Mi4zNjMwMDI3NzcwOTk2MSIgd2lkdGg9IjE4LjM5Njk5OTM1OTEzMDg2IiBpZD0iTGF5ZXJfMSIgdmVyc2lvbj0iMS4xIj4mI3hhOzxwYXRoIGQ9Ik02LjE3OCw4Ljc5OGwxLjk1LDYuMjA0bDEuODI1LDAuMDQybDEuODY3LTYuMTYyYzAsMC0xLjA3OS0wLjM1My0yLjU1Mi0wLjM1M1M2LjE3OCw4Ljc5OCw2LjE3OCw4Ljc5OHoiIGZpbGw9IiNGRkZGRkYiLz4mI3hhOzxnPiYjeGE7CTxwYXRoIGQ9Ik0xMS44NzcsOC42NDdjMC42OTcsMC4wNjEsMS4xNjIsMC4xMTgsMS45MjIsMC4yNTZjMS45ODIsMC4zNjEsNC4xNDgsMS4zMDksNC4xNDgsMy4wNjgmIzEwOyYjOTsmIzk7YzAsMS43NTgsMC4wNDUsMTIuNzYyLDAuMDQ1LDEyLjc2MnMtMC4wNDUsMS45MzgtMS43NiwxLjkzOGMtMS43MTMsMC0xLjg5My0xLjQ4OC0xLjg5My0xLjQ4OHYxNC4xNmMwLDAsMC4wNDUsMi42MTUtMi41MjUsMi42MTUmIzEwOyYjOTsmIzk7Yy0yLjU3MiwwLTIuNjE3LTIuMzQ2LTIuNjE3LTIuMzQ2cy0wLjA0MywyLjM0Ni0yLjYxNSwyLjM0NmMtMi41NywwLTIuNTIzLTIuNjE1LTIuNTIzLTIuNjE1di0xNC4xNmMwLDAtMC4xODIsMS40ODgtMS44OTUsMS40ODgmIzEwOyYjOTsmIzk7Yy0xLjcxNSwwLTEuNzYtMS45MzgtMS43Ni0xLjkzOFMwLjQ1LDEzLjcyOSwwLjQ1LDExLjk3MWMwLTEuNzYsMi4xNjYtMi43MDcsNC4xNDgtMy4wNjhjMC44MjgtMC4xNSwwLjcwNy0wLjE5NiwxLjQ0NS0wLjI1NiYjMTA7JiM5OyYjOTtsMy4wODQsMTAuMjVMMTEuODc3LDguNjQ3eiIgZmlsbD0iI0MyOTA1NCIvPiYjeGE7CTxnPiYjeGE7CQk8cG9seWdvbiBwb2ludHM9IjE1LjYwNiwyOC44NTUgMTUuNjA2LDI2LjY0NCAxNi42MSwyNi42NDQgMTYuNjEsMjguODY4IiBmaWxsPSIjRkZGRkZGIi8+JiN4YTsJCTxwYXRoIGQ9Ik0xNi42MSwyNi40NDNoLTEuMjA0djIuNjA5bDEuNDA0LDAuMDE4di0yLjYyN0gxNi42MXogTTE2LjQxLDI2Ljg0NGMwLDAuMjk4LDAsMS41MjEsMCwxLjgyMiYjMTA7JiM5OyYjOTsmIzk7Yy0wLjE5NC0wLjAwMy0wLjQxMy0wLjAwNi0wLjYwNC0wLjAwOGMwLTAuMjk1LDAtMS41MTcsMC0xLjgxNEMxNS45OTksMjYuODQ0LDE2LjIxNywyNi44NDQsMTYuNDEsMjYuODQ0eiIvPiYjeGE7CTwvZz4mI3hhOwk8Zz4mI3hhOwkJPHBhdGggZD0iTTQuNTI2LDguNTA0Yy0yLjgwNiwwLjUxMS00LjQ4MSwxLjgwOC00LjQ4MSwzLjQ2N0wwLDI0LjczMWMwLjAxOSwwLjgxOCwwLjQ5NSwyLjM0NSwyLjE2NSwyLjM0NSYjMTA7JiM5OyYjOTsmIzk7YzAuNjc1LDAsMS4xMzUtMC4yMjgsMS40OS0wLjUxM2MwLDIuMjQ5LDAsMTIuNzg3LDAsMTIuNzk1YzAsMC4xNTcsMC4wMjgsMS4zNzYsMC44NTYsMi4yMTljMC41MTIsMC41MjEsMS4yMDksMC43ODYsMi4wNzIsMC43ODYmIzEwOyYjOTsmIzk7JiM5O2MxLjQ1NCwwLDIuMjA5LTAuNjk0LDIuNjE1LTEuNDQyYzAuNDA3LDAuNzQ4LDEuMTY0LDEuNDQyLDIuNjE3LDEuNDQybDAsMGMwLjg2MywwLDEuNTYxLTAuMjY1LDIuMDczLTAuNzg2JiMxMDsmIzk7JiM5OyYjOTtjMC44MjktMC44NDQsMC44NTctMi4wNjQsMC44NTctMi4yMjZjMC0wLjAwOCwwLTEwLjUzNywwLTEyLjc4N2MwLjM1NCwwLjI4NSwwLjgxMiwwLjUxMiwxLjQ4NywwLjUxMiYjMTA7JiM5OyYjOTsmIzk7YzEuNjcsMCwyLjE0Ni0xLjUyNiwyLjE2NS0yLjMzM2MwLTAuMDEyLTAuMDQ1LTEyLjc3Mi0wLjA0NS0xMi43NzJjMC0xLjY1OS0xLjY3Ni0yLjk1Ni00LjQ4MS0zLjQ2NyYjMTA7JiM5OyYjOTsmIzk7Yy0xLjk5My0wLjM2MS00LjIxMS0wLjQwOS00LjMwNS0wLjQxMUg4LjgzOEM4LjczNyw4LjA5Niw2LjUxOSw4LjE0NCw0LjUyNiw4LjUwNHogTTAuODU0LDExLjk3MWMwLTEuODMyLDIuOTIxLTIuNTA3LDMuODE2LTIuNjcmIzEwOyYjOTsmIzk7JiM5O2MxLjkyOC0wLjM0OSw0LjE1My0wLjM5Nyw0LjE3Ni0wLjM5OGgwLjcxMmMwLjAxNCwwLDIuMjQsMC4wNDksNC4xNjgsMC4zOThjMC44OTUsMC4xNjMsMy44MTUsMC44MzgsMy44MTUsMi42N2wwLjA0NSwxMi43NjQmIzEwOyYjOTsmIzk7JiM5O2MtMC4wMDUsMC4xNDYtMC4wODMsMS41My0xLjM1NCwxLjUzYy0xLjI5OCwwLTEuNDc1LTEuMDE5LTEuNDkxLTEuMTM1bC0wLjgwNywwLjA1MnYxNC4xNmMwLDAuMDE2LDAuMDA0LDEuMDMxLTAuNjI5LDEuNjcxJiMxMDsmIzk7JiM5OyYjOTtjLTAuMzU0LDAuMzU3LTAuODU1LDAuNTM5LTEuNDkxLDAuNTM5Yy0yLjA5NywwLTIuMjA3LTEuNzUtMi4yMTItMS45NWwtMC44MSwwLjAwMWMtMC4wMDUsMC4xOTktMC4xMTQsMS45NDktMi4yMSwxLjk0OSYjMTA7JiM5OyYjOTsmIzk7Yy0wLjYzNSwwLTEuMTM3LTAuMTgyLTEuNDkxLTAuNTM5Yy0wLjYzMi0wLjY0LTAuNjI4LTEuNjU0LTAuNjI4LTEuNjY1VjI1LjE4M2wtMC44MDYtMC4wNTImIzEwOyYjOTsmIzk7JiM5O2MtMC4wMTcsMC4xMTYtMC4xOTUsMS4xMzUtMS40OTMsMS4xMzVjLTEuMjcxLDAtMS4zNS0xLjM4NS0xLjM1NS0xLjU0M0wwLjg1NCwxMS45NzF6Ii8+JiN4YTsJPC9nPiYjeGE7CTxnPiYjeGE7CQk8bGluZSB5Mj0iMTQuNzIxIiB4Mj0iNC4wNTkiIHkxPSIyNS4zNjIiIHgxPSI0LjA1OSIgZmlsbD0iI0ZGRkZGRiIvPiYjeGE7CQk8cmVjdCBoZWlnaHQ9IjEwLjY0MSIgd2lkdGg9IjAuODEiIHk9IjE0LjcyMSIgeD0iMy42NTQiLz4mI3hhOwk8L2c+JiN4YTsJPGc+JiN4YTsJCTxsaW5lIHkyPSIxNC44NTYiIHgyPSIxNC4zMzgiIHkxPSIyNS40OTkiIHgxPSIxNC4zMzgiIGZpbGw9IiNGRkZGRkYiLz4mI3hhOwkJPHJlY3QgaGVpZ2h0PSIxMC42NDMiIHdpZHRoPSIwLjgxMSIgeT0iMTQuODU2IiB4PSIxMy45MzMiLz4mI3hhOwk8L2c+JiN4YTsJPGc+JiN4YTsJCTxsaW5lIHkyPSIyNy4yMTIiIHgyPSI5LjE5OCIgeTE9IjM5LjkyOSIgeDE9IjkuMTk4IiBmaWxsPSIjRkZGRkZGIi8+JiN4YTsJCTxyZWN0IGhlaWdodD0iMTIuNzE3IiB3aWR0aD0iMC44MSIgeT0iMjcuMjEyIiB4PSI4Ljc5MyIvPiYjeGE7CTwvZz4mI3hhOwk8Zz4mI3hhOwkJPGNpcmNsZSByPSIzLjk2IiBjeT0iNC4zNjYiIGN4PSI5LjEwMSIgZmlsbD0iI0ZGRkZGRiIvPiYjeGE7CQk8cGF0aCBkPSJNNC43MzYsNC4zNjZjMCwyLjQwNywxLjk1OCw0LjM2Niw0LjM2Niw0LjM2NmMyLjQwNiwwLDQuMzY0LTEuOTU4LDQuMzY0LTQuMzY2UzExLjUwOCwwLDkuMTAyLDAmIzEwOyYjOTsmIzk7JiM5O0M2LjY5NSwwLDQuNzM2LDEuOTU4LDQuNzM2LDQuMzY2eiBNNS41NDYsNC4zNjZjMC0xLjk2MSwxLjU5NS0zLjU1NiwzLjU1Ni0zLjU1NmMxLjk2LDAsMy41NTQsMS41OTUsMy41NTQsMy41NTYmIzEwOyYjOTsmIzk7JiM5O3MtMS41OTQsMy41NTYtMy41NTQsMy41NTZDNy4xNDEsNy45MjIsNS41NDYsNi4zMjcsNS41NDYsNC4zNjZ6Ii8+JiN4YTsJPC9nPiYjeGE7CTxnPiYjeGE7CQk8cG9seWdvbiBwb2ludHM9IjE0LjQwNywyOC45NSAxNy43MDIsMjguOTUgMTcuNzAyLDM4LjY2OSAxNC40ODksMzguNjY5IiBmaWxsPSIjQzI5MDU0Ii8+JiN4YTsJCTxwYXRoIGQ9Ik0xNy43MDIsMjguNTQ1aC0zLjcwM2wwLjA4OSwxMC41MjloNC4wMlYyOC41NDVIMTcuNzAyeiBNMTcuMjk2LDI5LjM1NWMwLDAuNzExLDAsOC4xOTcsMCw4LjkwOGMtMC41MywwLTEuODgsMC0yLjQwNiwwJiMxMDsmIzk7JiM5OyYjOTtjLTAuMDA2LTAuNzA1LTAuMDY5LTguMTkxLTAuMDc1LTguOTA4QzE1LjM1NCwyOS4zNTUsMTYuNzYxLDI5LjM1NSwxNy4yOTYsMjkuMzU1eiIvPiYjeGE7CTwvZz4mI3hhOwk8Zz4mI3hhOwkJPHBhdGggZD0iTTUuOTQzLDguNzA1bDMuMDgxLDEwLjQ3NWwzLjA1NC0xMC40MzFsLTAuMzg1LTAuMTEyYzAsMC0yLjMzNiw3Ljk4My0yLjY2OSw5LjEyMmMtMC4zMzUtMS4xNC0yLjY5Ny05LjE2Ny0yLjY5Ny05LjE2NyYjMTA7JiM5OyYjOTsmIzk7TDUuOTQzLDguNzA1eiIvPiYjeGE7CTwvZz4mI3hhOwk8cG9seWdvbiBwb2ludHM9IjcuNTk0LDEzLjQyNiA4LjM4MSw4LjcxNCA5LjcxOSw4LjY5MiAxMC40NzEsMTMuMzgxIDkuMDIsMTguMjQ4Ii8+JiN4YTsJPGc+JiN4YTsJCTxwYXRoIGQ9Ik00LjI2Niw5LjA1OWwwLjEyMiwzLjAzOWMwLDAsMC43MDYtMC4yMTEsMS4wMzItMC4zMDljLTAuMDk5LDAuNDM0LTAuMzMzLDEuNDY3LTAuMzMzLDEuNDY3bDMuOTM3LDYuNzExbDQuMDI1LTYuNjkyJiMxMDsmIzk7JiM5OyYjOTtjMCwwLTAuMjM0LTEuMDM0LTAuMzMzLTEuNDY4YzAuMzI3LDAuMDk4LDEuMDMyLDAuMzA5LDEuMDMyLDAuMzA5bDAuMTIyLTMuMDM5bC0wLjQtMC4wMTZjMCwwLTAuMDg0LDIuMDk5LTAuMTAxLDIuNTIzJiMxMDsmIzk7JiM5OyYjOTtjLTAuMjk5LTAuMDg5LTEuMTk0LTAuMzU4LTEuMTk0LTAuMzU4czAuNDE2LDEuODM3LDAuNDQ4LDEuOThjLTAuMDc3LDAuMTI4LTMuMjgzLDUuNDU4LTMuNTk2LDUuOTc4JiMxMDsmIzk7JiM5OyYjOTtjLTAuMzA3LTAuNTIzLTMuNDQxLTUuODY3LTMuNTE2LTUuOTk0YzAuMDMyLTAuMTQxLDAuNDQ5LTEuOTgxLDAuNDQ5LTEuOTgxcy0wLjg5NSwwLjI2OS0xLjE5NCwwLjM1OCYjMTA7JiM5OyYjOTsmIzk7Yy0wLjAxNy0wLjQyNC0wLjEwMS0yLjUyMy0wLjEwMS0yLjUyM0w0LjI2Niw5LjA1OXoiLz4mI3hhOwk8L2c+JiN4YTs8L2c+JiN4YTs8L3N2Zz4=;container=0;" vertex="1" parent="yjropSwCNwgdsyY9ociL-60">
          <mxGeometry x="34.26315789473685" y="10.666666666666657" width="16.43478260869565" height="38.34782608695652" as="geometry" />
        </mxCell>
        <mxCell id="yjropSwCNwgdsyY9ociL-21" value="LMS" style="text;html=1;align=center;verticalAlign=middle;whiteSpace=wrap;rounded=0;movable=0;resizable=0;rotatable=0;deletable=0;editable=0;locked=1;connectable=0;" vertex="1" parent="yjropSwCNwgdsyY9ociL-60">
          <mxGeometry x="13.480000000000018" y="49.00999999999999" width="60" height="30" as="geometry" />
        </mxCell>
        <mxCell id="yjropSwCNwgdsyY9ociL-22" value="Academic&#xa;information&#xa;[high]" style="shape=image;verticalLabelPosition=bottom;verticalAlign=top;imageAspect=0;aspect=fixed;image=data:image/svg+xml,PHN2ZyB4bWxucz0iaHR0cDovL3d3dy53My5vcmcvMjAwMC9zdmciIHhtbG5zOnhsaW5rPSImYW1wO25zX3hsaW5rOyIgeG1sOnNwYWNlPSJwcmVzZXJ2ZSIgb3ZlcmZsb3c9InZpc2libGUiIHZpZXdCb3g9IjAgMCAzNS41NDM5OTg3MTgyNjE3MiA0MS4wODgwMDEyNTEyMjA3IiBoZWlnaHQ9IjQxLjA4ODAwMTI1MTIyMDciIHdpZHRoPSIzNS41NDM5OTg3MTgyNjE3MiIgaWQ9IkxheWVyXzEiIHZlcnNpb249IjEuMSI+JiN4YTs8Zz4mI3hhOwk8Zz4mI3hhOwkJPHBhdGggZD0iTTE1Ljg3Nyw0LjA1NGMwLDAsMC43NDQtMy4zOTIsMS43MzgtMy42MDQmIzEwOyYjOTsmIzk7JiM5O2MwLjk5Mi0wLjIxMywxLjM0NiwzLjE4OSwxLjM0NiwzLjE4OXMxLjc3My0xLjg0MywyLjk3Ny0yLjE5N2MxLjIwNS0wLjM1NCwyLjE5OS0wLjA3LDEuMjc3LDAuOTkzJiMxMDsmIzk7JiM5OyYjOTtjLTAuOTIyLDEuMDYyLTIuMDE0LDQuNDYtMS45ODYsNi4wOTZjMC4wNzIsMy44OTgsMy43MzQsNS4xOSw1LjkzNCw2LjY0N2M2LjY0Myw0LjQwMiw3LjkyMiw4LjY0NCw3LjkyMiwxMy4zNjUmIzEwOyYjOTsmIzk7JiM5O2MwLDYuODgzLTYuNzIxLDEyLjA4Ni0xNy4yNTgsMTIuMDg2Yy0xMS43NjYsMC0xNy4zNjctNi4xNjItMTcuMzY3LTEyLjQ2M2MwLTUuNDU3LDIuOTgyLTkuNTI4LDcuMDk2LTExLjg2NyYjMTA7JiM5OyYjOTsmIzk7YzQuNDM2LTIuNTI1LDYuNjU4LTMuMzczLDguNS00Ljc5MWMxLjg0Mi0xLjQxNy0xLjkxNC01LjQ1OS0zLjQ3My02LjUyMWMtMS4yNDQtMC44NDktMS4yMDUtMC45OTMtMy4zMzItMS43NzImIzEwOyYjOTsmIzk7JiM5O2MwLDAsMS43NzctMS42MzIsMy42MTUtMS4wNjNjMi4xOTMsMC42NzgsNC4xMTEsMy4yNjEsNC4xMTEsMy4yNjEiIGZpbGw9IiNDMjkwNTQiLz4mI3hhOwkJPHBhdGggZD0iTTE1LjU5OSwzLjI4NWMtMC43MzEtMC42NDEtMS42MjctMS4yNzMtMi41OTctMS41NzNjLTIuMDY2LTAuNjM5LTMuOTgxLDEuMDktNC4wNjIsMS4xNjRsLTAuNTU2LDAuNTFsMC43MDgsMC4yNTkmIzEwOyYjOTsmIzk7JiM5O2MxLjY2NywwLjYxMSwxLjkzLDAuNzk5LDIuNjMyLDEuM2wwLjU5OSwwLjQyYzEuMjY5LDAuODY1LDMuNzI0LDMuNTA2LDMuNzY5LDUuMDUzYzAuMDA5LDAuMzIxLTAuMDkyLDAuNTUyLTAuMzE3LDAuNzI1JiMxMDsmIzk7JiM5OyYjOTtjLTEuMDYzLDAuODE5LTIuMjk5LDEuNDYzLTQuMDA5LDIuMzU1TDcuMzI4LDE1LjlDMi42NzEsMTguNTQ3LDAsMjMuMDE4LDAsMjguMTY2YzAsNi40MzIsNS41MTIsMTIuOTIyLDE3LjgyNywxMi45MjImIzEwOyYjOTsmIzk7JiM5O2MxMC40MzIsMCwxNy43MTctNS4xNTgsMTcuNzE3LTEyLjU0NWMwLTQuMzQzLTAuOTg0LTkuMDE0LTguMTI3LTEzLjc0OGwtMS4zMDctMC43OTJjLTIuMDQ3LTEuMTg4LTQuMzY3LTIuNTM1LTQuNDIyLTUuNDgxJiMxMDsmIzk7JiM5OyYjOTtjLTAuMDI1LTEuNTI5LDEuMDQzLTQuODI4LDEuODc0LTUuNzg2YzAuNjA1LTAuNjk4LDAuNTIyLTEuMTcsMC4zNDctMS40NDNjLTAuMzA3LTAuNDc5LTEuMDkyLTAuNTg3LTIuMS0wLjI5MiYjMTA7JiM5OyYjOTsmIzk7Yy0wLjg1NiwwLjI1Mi0xLjg2NiwxLjA5Mi0yLjUyMiwxLjY5NWMtMC4xNTctMC45MDUtMC40NjMtMi4xMS0xLjA0OC0yLjUzNUwxNy41MTksMEMxNi41NDYsMC4yMDgsMTUuOTIzLDIuMDM2LDE1LjU5OSwzLjI4NXomIzEwOyYjOTsmIzk7JiM5OyBNMTcuNzExLDAuODk4YzAuMjU4LDAuMTE4LDAuNjU2LDEuNDc0LDAuNzkzLDIuNzg4bDAuMTAzLDAuOTgybDAuNjg2LTAuNzExYzAuNDctMC40ODksMS44ODYtMS44MTMsMi43NzUtMi4wNzYmIzEwOyYjOTsmIzk7JiM5O2MwLjYxMi0wLjE4LDAuOTYyLTAuMTI0LDEuMDUzLTAuMDc3Yy0wLjAyOSwwLjAyMS0wLjA3NywwLjEyNi0wLjI1MiwwLjMyOWMtMC45NzksMS4xMjctMi4xLDQuNTI0LTIuMSw2LjMzNCYjMTA7JiM5OyYjOTsmIzk7YzAsMC4wMjQsMCwwLjA0NywwLjAwMSwwLjA3YzAuMDYzLDMuNDY1LDIuNzMzLDUuMDE1LDQuODc5LDYuMjZsMS4yNiwwLjc2M2M2LjQwNCw0LjI0NCw3LjcxNyw4LjI1OSw3LjcxNywxMi45ODImIzEwOyYjOTsmIzk7JiM5O2MwLDYuODQ2LTYuOTA4LDExLjYyNy0xNi43OTksMTEuNjI3Yy0xMS42OCwwLTE2LjkwOC02LjAyOS0xNi45MDgtMTIuMDA0YzAtNC44NzgsMi40MzgtOC45NTEsNi44NjMtMTEuNDY3bDQuNDA4LTIuMzg1JiMxMDsmIzk7JiM5OyYjOTtjMS43NTItMC45MTQsMy4wMTctMS41NzQsNC4xNDUtMi40NDJjMC40NDMtMC4zNDEsMC42NzYtMC44MjksMC42NzYtMS40MTVjMC0wLjAyMSwwLTAuMDQzLTAuMDAxLTAuMDY0JiMxMDsmIzk7JiM5OyYjOTtjLTAuMDYxLTIuMTA5LTMuMDA3LTQuOTkzLTQuMTY5LTUuNzg1bC0wLjU4My0wLjQwOWMtMC41OTgtMC40MjctMC45NzUtMC42NzctMi4wNS0xLjEwNmMwLjYxLTAuMzc2LDEuNTYyLTAuNzk5LDIuNTIxLTAuNTAyJiMxMDsmIzk7JiM5OyYjOTtjMi4wMjEsMC42MjUsMy44NiwzLjA3MSwzLjg3OCwzLjA5NmwwLjczNy0wLjU0OGMtMC4wMzQtMC4wNDYtMC40MDYtMC41MzItMC45ODItMS4xMjdDMTYuNzI4LDIuNDQsMTcuMzU0LDAuOTc1LDE3LjcxMSwwLjg5OHoiLz4mI3hhOwk8L2c+JiN4YTsJPGc+JiN4YTsJCTxwYXRoIGQ9Ik0yMi43MzcsNi41MWMtMC4wMzUtMC4zMTktMC4yMTMtMC43OTctMS43NTQtMC41NjcmIzEwOyYjOTsmIzk7JiM5O2MtMS44MzYsMC4yNzQtNS41NzIsMS4xNjQtNi4zOTgsMS41NzdjLTAuNzQ0LDAuMzczLTEuMDEsMC43OTktMC43MjcsMS4yMjNjMC4yODMsMC40MjYsMS40MTgsMC40OTcsMS40MTgsMC40OTcmIzEwOyYjOTsmIzk7JiM5O3MtMS4wNjIsMC41MzEtMC44NjksMS4wNDZjMC4yMjEsMC41ODEsMS4wMzUsMC41ODEsMi45OTYsMC4xNTlDMTguNTQ1LDEwLjE5OCwyMSw5LjY2NSwyMi4wODEsOS4zMSYjMTA7JiM5OyYjOTsmIzk7YzEuMDgyLTAuMzU0LDEuMjI3LTEuMDk3LDEuMTctMS4zNjRjLTAuMDk2LTAuNDYzLTEuMTctMC41MzItMS4xNy0wLjUzMlMyMi43NzIsNi44MjgsMjIuNzM3LDYuNTF6IiBmaWxsPSIjRkVFODRDIi8+JiN4YTsJCTxwYXRoIGQ9Ik0yMC45MTYsNS40ODhjLTEuNzI3LDAuMjU4LTUuNjA3LDEuMTU2LTYuNTM3LDEuNjIxYy0wLjYwNSwwLjMwNC0wLjk1MiwwLjY0Ny0xLjA1OSwxLjA1MWwwLjE1NiwwLjgzOCYjMTA7JiM5OyYjOTsmIzk7YzAuMTYsMC4yNCwwLjQ0OCwwLjM4NiwwLjc0NSwwLjQ5Yy0wLjE2NSwwLjE5My0wLjMsMC40MDktMC4zLDAuNjYyYzAsMC4wOTYsMC4wMTcsMC4xOTQsMC4wNTUsMC4yOTcmIzEwOyYjOTsmIzk7JiM5O2MwLjM5MiwxLjAzMiwxLjc2NywwLjgyNCwzLjUyMywwLjQ0N2MxLjUzOC0wLjMzMiwzLjcwMS0wLjgxMSw0LjcyNS0xLjE0N2MxLjEyNC0wLjM2OCwxLjQ5Ni0xLjE1OSwxLjQ5Ni0xLjY5MiYjMTA7JiM5OyYjOTsmIzk7YzAtMC4wNzMtMC4wMDctMC4xNDItMC4wMjEtMC4yMDRjLTAuMDc4LTAuMzc5LTAuNC0wLjU5Ni0wLjc0My0wLjcyNGMwLjEzMy0wLjE5NCwwLjI0MS0wLjM5NiwwLjI0MS0wLjU5NiYjMTA7JiM5OyYjOTsmIzk7YzAtMC4wMjQtMC4wMDItMC4wNDgtMC4wMDQtMC4wNzFsLTAuMzk4LTAuNzQ0QzIyLjQxOSw1LjQyNSwyMS44MjIsNS4zNTMsMjAuOTE2LDUuNDg4eiBNMTQuODM2LDEwLjEyMiYjMTA7JiM5OyYjOTsmIzk7YzAuMDM1LTAuMDY3LDAuMzUyLTAuMzI0LDAuNjQ2LTAuNDcybDEuNTA0LTAuNzU5bC0xLjY4MS0wLjExYy0wLjQ1LTAuMDI5LTAuOTc4LTAuMTc1LTEuMDY1LTAuMjkzJiMxMDsmIzk7JiM5OyYjOTtjLTAuMDI2LTAuMTEzLDAuMDM2LTAuMjk5LDAuNTUxLTAuNTU3YzAuNzE3LTAuMzU4LDQuMzQ1LTEuMjQ3LDYuMjYxLTEuNTM0YzAuODk2LTAuMTMzLDEuMTQ0LDAuMDE1LDEuMTg0LDAuMDQ2JiMxMDsmIzk7JiM5OyYjOTtjMCwwLDAuMDE3LDAuMDQyLDAuMDMsMC4wNzdjLTAuMDUsMC4xMTItMC4yNjgsMC4zNjEtMC40ODEsMC41NDJsLTAuODYxLDAuNzMybDEuMTI4LDAuMDc3YzAuMzEzLDAuMDIxLDAuNjk1LDAuMTI2LDAuNzcsMC4yMTImIzEwOyYjOTsmIzk7JiM5O2MtMC4wMDIsMC4wNjUtMC4wOTksMC41MzMtMC44ODIsMC43ODljLTEuMDk3LDAuMzYxLTMuNzU4LDAuOTM0LTQuNjMyLDEuMTIyQzE2LjczLDEwLjExOSwxNC45NzgsMTAuNDk2LDE0LjgzNiwxMC4xMjJ6JiMxMDsmIzk7JiM5OyYjOTsgTTIzLjE5NCw2LjQ1OWwtMC4wMS0wLjA4OEwyMy4xOTQsNi40NTl6IE0yMy4xOTQsNi40NTlMMjMuMTk0LDYuNDU5TDIzLjE5NCw2LjQ1OUwyMy4xOTQsNi40NTl6Ii8+JiN4YTsJPC9nPiYjeGE7CTxnPiYjeGE7CQk8cmVjdCBoZWlnaHQ9IjcuMjc3IiB3aWR0aD0iMC45MTkiIHRyYW5zZm9ybT0ibWF0cml4KC0wLjI0NTUgLTAuOTY5NCAwLjk2OTQgLTAuMjQ1NSAxNS4wNDMzIDI4LjM5NjUpIiB5PSI0LjcwNiIgeD0iMTguMTEzIi8+JiN4YTsJPC9nPiYjeGE7CTxnPiYjeGE7CQk8cGF0aCBkPSJNMTcuNjUxLDM2Ljk2di0yLjAyN2MtMS4wMS0wLjEyNy0xLjgyNi0wLjM1Mi0yLjQ1Ny0wLjY3NGMtMC42MzEtMC4zMjQtMS4xNzYtMC44NDYtMS42MzUtMS41NyYjMTA7JiM5OyYjOTsmIzk7Yy0wLjQ1Ny0wLjcyMS0wLjcyNS0xLjYwNC0wLjc5OS0yLjY0NWwyLjAyNy0wLjM4N2MwLjE1NiwxLjA4LDAuNDMyLDEuODc1LDAuODI4LDIuMzgxYzAuNTY2LDAuNzE3LDEuMjQ0LDEuMTEzLDIuMDM1LDEuMTk1JiMxMDsmIzk7JiM5OyYjOTt2LTYuMzIyYy0wLjgyMi0wLjIxNS0xLjY2OC0wLjU2NC0yLjUzMS0xLjA0OWMtMC42NDEtMC4zNTctMS4xMzctMC44NTItMS40OC0xLjQ4NGMtMC4zNDgtMC42MzUtMC41MjEtMS4zNTUtMC41MjEtMi4xNjImIzEwOyYjOTsmIzk7JiM5O2MwLTEuNDMsMC41MDYtMi41OSwxLjUyLTMuNDc4YzAuNjc2LTAuNTk3LDEuNjgtMC45NjIsMy4wMTQtMS4wOTd2LTAuOTUzaDEuMTkxdjAuOTUzYzEuMTY0LDAuMTE0LDIuMDg4LDAuNDU4LDIuNzczLDEuMDM0JiMxMDsmIzk7JiM5OyYjOTtjMC44NzMsMC43MzQsMS40LDEuNzQxLDEuNTc4LDMuMDIxbC0yLjA1NywwLjMyOGMtMC4xMTktMC43OTktMC4zNjUtMS40MTItMC43NDQtMS44MzhjLTAuMzc3LTAuNDI4LTAuODk1LTAuNzA4LTEuNTUxLTAuODQ1JiMxMDsmIzk7JiM5OyYjOTt2NS43ODljMS4wMTQsMC4yNjYsMS42ODQsMC40NjksMi4wMSwwLjYxMWMwLjYyNywwLjI3NSwxLjEzNywwLjYxMSwxLjUzMSwxLjAwNnMwLjY5OSwwLjg2MywwLjkxLDEuNDA2JiMxMDsmIzk7JiM5OyYjOTtjMC4yMTMsMC41NDUsMC4zMTgsMS4xMzMsMC4zMTgsMS43NjZjMCwxLjM5NS0wLjQ0MywyLjU1Ny0xLjMyOCwzLjQ4NmMtMC44ODcsMC45MzItMi4wMzUsMS40MzItMy40NDEsMS40OTh2Mi4wNTdIMTcuNjUxeiYjMTA7JiM5OyYjOTsmIzk7IE0xNy42NTEsMTkuMzEyYy0wLjc3NywwLjExOS0xLjM4OSwwLjQzMy0xLjgzNCwwLjkzOGMtMC40NDcsMC41MDgtMC42NzIsMS4xMDktMC42NzIsMS44MDJjMCwwLjY4NiwwLjE5MSwxLjI2LDAuNTcsMS43MjMmIzEwOyYjOTsmIzk7JiM5O2MwLjM3OSwwLjQ2MSwxLjAyMywwLjgwOSwxLjkzNiwxLjA0NVYxOS4zMTJ6IE0xOC44NDIsMzMuMjM0YzAuNzgzLTAuMDk4LDEuNDMyLTAuNDM0LDEuOTQ1LTEuMDE2JiMxMDsmIzk7JiM5OyYjOTtjMC41MTItMC41OCwwLjc2OC0xLjI5NywwLjc2OC0yLjE1MmMwLTAuNzMtMC4xODItMS4zMTQtMC41NDktMS43NThjLTAuMzY1LTAuNDQxLTEuMDg2LTAuODAzLTIuMTY0LTEuMDg0VjMzLjIzNHoiLz4mI3hhOwk8L2c+JiN4YTs8L2c+JiN4YTs8L3N2Zz4=" vertex="1" parent="yjropSwCNwgdsyY9ociL-60">
          <mxGeometry x="125.12" y="290" width="35.12" height="40" as="geometry" />
        </mxCell>
        <mxCell id="yjropSwCNwgdsyY9ociL-23" value="Confidential &amp;&#xa;PII&#xa;Data&#xa;[critical]" style="shape=image;verticalLabelPosition=bottom;verticalAlign=top;imageAspect=0;aspect=fixed;image=data:image/svg+xml,PHN2ZyB4bWxucz0iaHR0cDovL3d3dy53My5vcmcvMjAwMC9zdmciIHhtbG5zOnhsaW5rPSImYW1wO25zX3hsaW5rOyIgeG1sOnNwYWNlPSJwcmVzZXJ2ZSIgb3ZlcmZsb3c9InZpc2libGUiIHZpZXdCb3g9IjAgMCAzNS41NDM5OTg3MTgyNjE3MiA0MS4wODgwMDEyNTEyMjA3IiBoZWlnaHQ9IjQxLjA4ODAwMTI1MTIyMDciIHdpZHRoPSIzNS41NDM5OTg3MTgyNjE3MiIgaWQ9IkxheWVyXzEiIHZlcnNpb249IjEuMSI+JiN4YTs8Zz4mI3hhOwk8Zz4mI3hhOwkJPHBhdGggZD0iTTE1Ljg3Nyw0LjA1NGMwLDAsMC43NDQtMy4zOTIsMS43MzgtMy42MDQmIzEwOyYjOTsmIzk7JiM5O2MwLjk5Mi0wLjIxMywxLjM0NiwzLjE4OSwxLjM0NiwzLjE4OXMxLjc3My0xLjg0MywyLjk3Ny0yLjE5N2MxLjIwNS0wLjM1NCwyLjE5OS0wLjA3LDEuMjc3LDAuOTkzJiMxMDsmIzk7JiM5OyYjOTtjLTAuOTIyLDEuMDYyLTIuMDE0LDQuNDYtMS45ODYsNi4wOTZjMC4wNzIsMy44OTgsMy43MzQsNS4xOSw1LjkzNCw2LjY0N2M2LjY0Myw0LjQwMiw3LjkyMiw4LjY0NCw3LjkyMiwxMy4zNjUmIzEwOyYjOTsmIzk7JiM5O2MwLDYuODgzLTYuNzIxLDEyLjA4Ni0xNy4yNTgsMTIuMDg2Yy0xMS43NjYsMC0xNy4zNjctNi4xNjItMTcuMzY3LTEyLjQ2M2MwLTUuNDU3LDIuOTgyLTkuNTI4LDcuMDk2LTExLjg2NyYjMTA7JiM5OyYjOTsmIzk7YzQuNDM2LTIuNTI1LDYuNjU4LTMuMzczLDguNS00Ljc5MWMxLjg0Mi0xLjQxNy0xLjkxNC01LjQ1OS0zLjQ3My02LjUyMWMtMS4yNDQtMC44NDktMS4yMDUtMC45OTMtMy4zMzItMS43NzImIzEwOyYjOTsmIzk7JiM5O2MwLDAsMS43NzctMS42MzIsMy42MTUtMS4wNjNjMi4xOTMsMC42NzgsNC4xMTEsMy4yNjEsNC4xMTEsMy4yNjEiIGZpbGw9IiNDMjkwNTQiLz4mI3hhOwkJPHBhdGggZD0iTTE1LjU5OSwzLjI4NWMtMC43MzEtMC42NDEtMS42MjctMS4yNzMtMi41OTctMS41NzNjLTIuMDY2LTAuNjM5LTMuOTgxLDEuMDktNC4wNjIsMS4xNjRsLTAuNTU2LDAuNTFsMC43MDgsMC4yNTkmIzEwOyYjOTsmIzk7JiM5O2MxLjY2NywwLjYxMSwxLjkzLDAuNzk5LDIuNjMyLDEuM2wwLjU5OSwwLjQyYzEuMjY5LDAuODY1LDMuNzI0LDMuNTA2LDMuNzY5LDUuMDUzYzAuMDA5LDAuMzIxLTAuMDkyLDAuNTUyLTAuMzE3LDAuNzI1JiMxMDsmIzk7JiM5OyYjOTtjLTEuMDYzLDAuODE5LTIuMjk5LDEuNDYzLTQuMDA5LDIuMzU1TDcuMzI4LDE1LjlDMi42NzEsMTguNTQ3LDAsMjMuMDE4LDAsMjguMTY2YzAsNi40MzIsNS41MTIsMTIuOTIyLDE3LjgyNywxMi45MjImIzEwOyYjOTsmIzk7JiM5O2MxMC40MzIsMCwxNy43MTctNS4xNTgsMTcuNzE3LTEyLjU0NWMwLTQuMzQzLTAuOTg0LTkuMDE0LTguMTI3LTEzLjc0OGwtMS4zMDctMC43OTJjLTIuMDQ3LTEuMTg4LTQuMzY3LTIuNTM1LTQuNDIyLTUuNDgxJiMxMDsmIzk7JiM5OyYjOTtjLTAuMDI1LTEuNTI5LDEuMDQzLTQuODI4LDEuODc0LTUuNzg2YzAuNjA1LTAuNjk4LDAuNTIyLTEuMTcsMC4zNDctMS40NDNjLTAuMzA3LTAuNDc5LTEuMDkyLTAuNTg3LTIuMS0wLjI5MiYjMTA7JiM5OyYjOTsmIzk7Yy0wLjg1NiwwLjI1Mi0xLjg2NiwxLjA5Mi0yLjUyMiwxLjY5NWMtMC4xNTctMC45MDUtMC40NjMtMi4xMS0xLjA0OC0yLjUzNUwxNy41MTksMEMxNi41NDYsMC4yMDgsMTUuOTIzLDIuMDM2LDE1LjU5OSwzLjI4NXomIzEwOyYjOTsmIzk7JiM5OyBNMTcuNzExLDAuODk4YzAuMjU4LDAuMTE4LDAuNjU2LDEuNDc0LDAuNzkzLDIuNzg4bDAuMTAzLDAuOTgybDAuNjg2LTAuNzExYzAuNDctMC40ODksMS44ODYtMS44MTMsMi43NzUtMi4wNzYmIzEwOyYjOTsmIzk7JiM5O2MwLjYxMi0wLjE4LDAuOTYyLTAuMTI0LDEuMDUzLTAuMDc3Yy0wLjAyOSwwLjAyMS0wLjA3NywwLjEyNi0wLjI1MiwwLjMyOWMtMC45NzksMS4xMjctMi4xLDQuNTI0LTIuMSw2LjMzNCYjMTA7JiM5OyYjOTsmIzk7YzAsMC4wMjQsMCwwLjA0NywwLjAwMSwwLjA3YzAuMDYzLDMuNDY1LDIuNzMzLDUuMDE1LDQuODc5LDYuMjZsMS4yNiwwLjc2M2M2LjQwNCw0LjI0NCw3LjcxNyw4LjI1OSw3LjcxNywxMi45ODImIzEwOyYjOTsmIzk7JiM5O2MwLDYuODQ2LTYuOTA4LDExLjYyNy0xNi43OTksMTEuNjI3Yy0xMS42OCwwLTE2LjkwOC02LjAyOS0xNi45MDgtMTIuMDA0YzAtNC44NzgsMi40MzgtOC45NTEsNi44NjMtMTEuNDY3bDQuNDA4LTIuMzg1JiMxMDsmIzk7JiM5OyYjOTtjMS43NTItMC45MTQsMy4wMTctMS41NzQsNC4xNDUtMi40NDJjMC40NDMtMC4zNDEsMC42NzYtMC44MjksMC42NzYtMS40MTVjMC0wLjAyMSwwLTAuMDQzLTAuMDAxLTAuMDY0JiMxMDsmIzk7JiM5OyYjOTtjLTAuMDYxLTIuMTA5LTMuMDA3LTQuOTkzLTQuMTY5LTUuNzg1bC0wLjU4My0wLjQwOWMtMC41OTgtMC40MjctMC45NzUtMC42NzctMi4wNS0xLjEwNmMwLjYxLTAuMzc2LDEuNTYyLTAuNzk5LDIuNTIxLTAuNTAyJiMxMDsmIzk7JiM5OyYjOTtjMi4wMjEsMC42MjUsMy44NiwzLjA3MSwzLjg3OCwzLjA5NmwwLjczNy0wLjU0OGMtMC4wMzQtMC4wNDYtMC40MDYtMC41MzItMC45ODItMS4xMjdDMTYuNzI4LDIuNDQsMTcuMzU0LDAuOTc1LDE3LjcxMSwwLjg5OHoiLz4mI3hhOwk8L2c+JiN4YTsJPGc+JiN4YTsJCTxwYXRoIGQ9Ik0yMi43MzcsNi41MWMtMC4wMzUtMC4zMTktMC4yMTMtMC43OTctMS43NTQtMC41NjcmIzEwOyYjOTsmIzk7JiM5O2MtMS44MzYsMC4yNzQtNS41NzIsMS4xNjQtNi4zOTgsMS41NzdjLTAuNzQ0LDAuMzczLTEuMDEsMC43OTktMC43MjcsMS4yMjNjMC4yODMsMC40MjYsMS40MTgsMC40OTcsMS40MTgsMC40OTcmIzEwOyYjOTsmIzk7JiM5O3MtMS4wNjIsMC41MzEtMC44NjksMS4wNDZjMC4yMjEsMC41ODEsMS4wMzUsMC41ODEsMi45OTYsMC4xNTlDMTguNTQ1LDEwLjE5OCwyMSw5LjY2NSwyMi4wODEsOS4zMSYjMTA7JiM5OyYjOTsmIzk7YzEuMDgyLTAuMzU0LDEuMjI3LTEuMDk3LDEuMTctMS4zNjRjLTAuMDk2LTAuNDYzLTEuMTctMC41MzItMS4xNy0wLjUzMlMyMi43NzIsNi44MjgsMjIuNzM3LDYuNTF6IiBmaWxsPSIjRkVFODRDIi8+JiN4YTsJCTxwYXRoIGQ9Ik0yMC45MTYsNS40ODhjLTEuNzI3LDAuMjU4LTUuNjA3LDEuMTU2LTYuNTM3LDEuNjIxYy0wLjYwNSwwLjMwNC0wLjk1MiwwLjY0Ny0xLjA1OSwxLjA1MWwwLjE1NiwwLjgzOCYjMTA7JiM5OyYjOTsmIzk7YzAuMTYsMC4yNCwwLjQ0OCwwLjM4NiwwLjc0NSwwLjQ5Yy0wLjE2NSwwLjE5My0wLjMsMC40MDktMC4zLDAuNjYyYzAsMC4wOTYsMC4wMTcsMC4xOTQsMC4wNTUsMC4yOTcmIzEwOyYjOTsmIzk7JiM5O2MwLjM5MiwxLjAzMiwxLjc2NywwLjgyNCwzLjUyMywwLjQ0N2MxLjUzOC0wLjMzMiwzLjcwMS0wLjgxMSw0LjcyNS0xLjE0N2MxLjEyNC0wLjM2OCwxLjQ5Ni0xLjE1OSwxLjQ5Ni0xLjY5MiYjMTA7JiM5OyYjOTsmIzk7YzAtMC4wNzMtMC4wMDctMC4xNDItMC4wMjEtMC4yMDRjLTAuMDc4LTAuMzc5LTAuNC0wLjU5Ni0wLjc0My0wLjcyNGMwLjEzMy0wLjE5NCwwLjI0MS0wLjM5NiwwLjI0MS0wLjU5NiYjMTA7JiM5OyYjOTsmIzk7YzAtMC4wMjQtMC4wMDItMC4wNDgtMC4wMDQtMC4wNzFsLTAuMzk4LTAuNzQ0QzIyLjQxOSw1LjQyNSwyMS44MjIsNS4zNTMsMjAuOTE2LDUuNDg4eiBNMTQuODM2LDEwLjEyMiYjMTA7JiM5OyYjOTsmIzk7YzAuMDM1LTAuMDY3LDAuMzUyLTAuMzI0LDAuNjQ2LTAuNDcybDEuNTA0LTAuNzU5bC0xLjY4MS0wLjExYy0wLjQ1LTAuMDI5LTAuOTc4LTAuMTc1LTEuMDY1LTAuMjkzJiMxMDsmIzk7JiM5OyYjOTtjLTAuMDI2LTAuMTEzLDAuMDM2LTAuMjk5LDAuNTUxLTAuNTU3YzAuNzE3LTAuMzU4LDQuMzQ1LTEuMjQ3LDYuMjYxLTEuNTM0YzAuODk2LTAuMTMzLDEuMTQ0LDAuMDE1LDEuMTg0LDAuMDQ2JiMxMDsmIzk7JiM5OyYjOTtjMCwwLDAuMDE3LDAuMDQyLDAuMDMsMC4wNzdjLTAuMDUsMC4xMTItMC4yNjgsMC4zNjEtMC40ODEsMC41NDJsLTAuODYxLDAuNzMybDEuMTI4LDAuMDc3YzAuMzEzLDAuMDIxLDAuNjk1LDAuMTI2LDAuNzcsMC4yMTImIzEwOyYjOTsmIzk7JiM5O2MtMC4wMDIsMC4wNjUtMC4wOTksMC41MzMtMC44ODIsMC43ODljLTEuMDk3LDAuMzYxLTMuNzU4LDAuOTM0LTQuNjMyLDEuMTIyQzE2LjczLDEwLjExOSwxNC45NzgsMTAuNDk2LDE0LjgzNiwxMC4xMjJ6JiMxMDsmIzk7JiM5OyYjOTsgTTIzLjE5NCw2LjQ1OWwtMC4wMS0wLjA4OEwyMy4xOTQsNi40NTl6IE0yMy4xOTQsNi40NTlMMjMuMTk0LDYuNDU5TDIzLjE5NCw2LjQ1OUwyMy4xOTQsNi40NTl6Ii8+JiN4YTsJPC9nPiYjeGE7CTxnPiYjeGE7CQk8cmVjdCBoZWlnaHQ9IjcuMjc3IiB3aWR0aD0iMC45MTkiIHRyYW5zZm9ybT0ibWF0cml4KC0wLjI0NTUgLTAuOTY5NCAwLjk2OTQgLTAuMjQ1NSAxNS4wNDMzIDI4LjM5NjUpIiB5PSI0LjcwNiIgeD0iMTguMTEzIi8+JiN4YTsJPC9nPiYjeGE7CTxnPiYjeGE7CQk8cGF0aCBkPSJNMTcuNjUxLDM2Ljk2di0yLjAyN2MtMS4wMS0wLjEyNy0xLjgyNi0wLjM1Mi0yLjQ1Ny0wLjY3NGMtMC42MzEtMC4zMjQtMS4xNzYtMC44NDYtMS42MzUtMS41NyYjMTA7JiM5OyYjOTsmIzk7Yy0wLjQ1Ny0wLjcyMS0wLjcyNS0xLjYwNC0wLjc5OS0yLjY0NWwyLjAyNy0wLjM4N2MwLjE1NiwxLjA4LDAuNDMyLDEuODc1LDAuODI4LDIuMzgxYzAuNTY2LDAuNzE3LDEuMjQ0LDEuMTEzLDIuMDM1LDEuMTk1JiMxMDsmIzk7JiM5OyYjOTt2LTYuMzIyYy0wLjgyMi0wLjIxNS0xLjY2OC0wLjU2NC0yLjUzMS0xLjA0OWMtMC42NDEtMC4zNTctMS4xMzctMC44NTItMS40OC0xLjQ4NGMtMC4zNDgtMC42MzUtMC41MjEtMS4zNTUtMC41MjEtMi4xNjImIzEwOyYjOTsmIzk7JiM5O2MwLTEuNDMsMC41MDYtMi41OSwxLjUyLTMuNDc4YzAuNjc2LTAuNTk3LDEuNjgtMC45NjIsMy4wMTQtMS4wOTd2LTAuOTUzaDEuMTkxdjAuOTUzYzEuMTY0LDAuMTE0LDIuMDg4LDAuNDU4LDIuNzczLDEuMDM0JiMxMDsmIzk7JiM5OyYjOTtjMC44NzMsMC43MzQsMS40LDEuNzQxLDEuNTc4LDMuMDIxbC0yLjA1NywwLjMyOGMtMC4xMTktMC43OTktMC4zNjUtMS40MTItMC43NDQtMS44MzhjLTAuMzc3LTAuNDI4LTAuODk1LTAuNzA4LTEuNTUxLTAuODQ1JiMxMDsmIzk7JiM5OyYjOTt2NS43ODljMS4wMTQsMC4yNjYsMS42ODQsMC40NjksMi4wMSwwLjYxMWMwLjYyNywwLjI3NSwxLjEzNywwLjYxMSwxLjUzMSwxLjAwNnMwLjY5OSwwLjg2MywwLjkxLDEuNDA2JiMxMDsmIzk7JiM5OyYjOTtjMC4yMTMsMC41NDUsMC4zMTgsMS4xMzMsMC4zMTgsMS43NjZjMCwxLjM5NS0wLjQ0MywyLjU1Ny0xLjMyOCwzLjQ4NmMtMC44ODcsMC45MzItMi4wMzUsMS40MzItMy40NDEsMS40OTh2Mi4wNTdIMTcuNjUxeiYjMTA7JiM5OyYjOTsmIzk7IE0xNy42NTEsMTkuMzEyYy0wLjc3NywwLjExOS0xLjM4OSwwLjQzMy0xLjgzNCwwLjkzOGMtMC40NDcsMC41MDgtMC42NzIsMS4xMDktMC42NzIsMS44MDJjMCwwLjY4NiwwLjE5MSwxLjI2LDAuNTcsMS43MjMmIzEwOyYjOTsmIzk7JiM5O2MwLjM3OSwwLjQ2MSwxLjAyMywwLjgwOSwxLjkzNiwxLjA0NVYxOS4zMTJ6IE0xOC44NDIsMzMuMjM0YzAuNzgzLTAuMDk4LDEuNDMyLTAuNDM0LDEuOTQ1LTEuMDE2JiMxMDsmIzk7JiM5OyYjOTtjMC41MTItMC41OCwwLjc2OC0xLjI5NywwLjc2OC0yLjE1MmMwLTAuNzMtMC4xODItMS4zMTQtMC41NDktMS43NThjLTAuMzY1LTAuNDQxLTEuMDg2LTAuODAzLTIuMTY0LTEuMDg0VjMzLjIzNHoiLz4mI3hhOwk8L2c+JiN4YTs8L2c+JiN4YTs8L3N2Zz4=" vertex="1" parent="yjropSwCNwgdsyY9ociL-60">
          <mxGeometry x="260" y="150" width="35.12" height="40" as="geometry" />
        </mxCell>
        <mxCell id="yjropSwCNwgdsyY9ociL-24" value="Web Portals&#xa;[high]" style="shape=image;verticalLabelPosition=bottom;verticalAlign=top;imageAspect=0;aspect=fixed;image=data:image/svg+xml,PHN2ZyB4bWxucz0iaHR0cDovL3d3dy53My5vcmcvMjAwMC9zdmciIHhtbG5zOnhsaW5rPSImYW1wO25zX3hsaW5rOyIgeG1sOnNwYWNlPSJwcmVzZXJ2ZSIgb3ZlcmZsb3c9InZpc2libGUiIHZpZXdCb3g9IjAgMCAzNS41NDM5OTg3MTgyNjE3MiA0MS4wODgwMDEyNTEyMjA3IiBoZWlnaHQ9IjQxLjA4ODAwMTI1MTIyMDciIHdpZHRoPSIzNS41NDM5OTg3MTgyNjE3MiIgaWQ9IkxheWVyXzEiIHZlcnNpb249IjEuMSI+JiN4YTs8Zz4mI3hhOwk8Zz4mI3hhOwkJPHBhdGggZD0iTTE1Ljg3Nyw0LjA1NGMwLDAsMC43NDQtMy4zOTIsMS43MzgtMy42MDQmIzEwOyYjOTsmIzk7JiM5O2MwLjk5Mi0wLjIxMywxLjM0NiwzLjE4OSwxLjM0NiwzLjE4OXMxLjc3My0xLjg0MywyLjk3Ny0yLjE5N2MxLjIwNS0wLjM1NCwyLjE5OS0wLjA3LDEuMjc3LDAuOTkzJiMxMDsmIzk7JiM5OyYjOTtjLTAuOTIyLDEuMDYyLTIuMDE0LDQuNDYtMS45ODYsNi4wOTZjMC4wNzIsMy44OTgsMy43MzQsNS4xOSw1LjkzNCw2LjY0N2M2LjY0Myw0LjQwMiw3LjkyMiw4LjY0NCw3LjkyMiwxMy4zNjUmIzEwOyYjOTsmIzk7JiM5O2MwLDYuODgzLTYuNzIxLDEyLjA4Ni0xNy4yNTgsMTIuMDg2Yy0xMS43NjYsMC0xNy4zNjctNi4xNjItMTcuMzY3LTEyLjQ2M2MwLTUuNDU3LDIuOTgyLTkuNTI4LDcuMDk2LTExLjg2NyYjMTA7JiM5OyYjOTsmIzk7YzQuNDM2LTIuNTI1LDYuNjU4LTMuMzczLDguNS00Ljc5MWMxLjg0Mi0xLjQxNy0xLjkxNC01LjQ1OS0zLjQ3My02LjUyMWMtMS4yNDQtMC44NDktMS4yMDUtMC45OTMtMy4zMzItMS43NzImIzEwOyYjOTsmIzk7JiM5O2MwLDAsMS43NzctMS42MzIsMy42MTUtMS4wNjNjMi4xOTMsMC42NzgsNC4xMTEsMy4yNjEsNC4xMTEsMy4yNjEiIGZpbGw9IiNDMjkwNTQiLz4mI3hhOwkJPHBhdGggZD0iTTE1LjU5OSwzLjI4NWMtMC43MzEtMC42NDEtMS42MjctMS4yNzMtMi41OTctMS41NzNjLTIuMDY2LTAuNjM5LTMuOTgxLDEuMDktNC4wNjIsMS4xNjRsLTAuNTU2LDAuNTFsMC43MDgsMC4yNTkmIzEwOyYjOTsmIzk7JiM5O2MxLjY2NywwLjYxMSwxLjkzLDAuNzk5LDIuNjMyLDEuM2wwLjU5OSwwLjQyYzEuMjY5LDAuODY1LDMuNzI0LDMuNTA2LDMuNzY5LDUuMDUzYzAuMDA5LDAuMzIxLTAuMDkyLDAuNTUyLTAuMzE3LDAuNzI1JiMxMDsmIzk7JiM5OyYjOTtjLTEuMDYzLDAuODE5LTIuMjk5LDEuNDYzLTQuMDA5LDIuMzU1TDcuMzI4LDE1LjlDMi42NzEsMTguNTQ3LDAsMjMuMDE4LDAsMjguMTY2YzAsNi40MzIsNS41MTIsMTIuOTIyLDE3LjgyNywxMi45MjImIzEwOyYjOTsmIzk7JiM5O2MxMC40MzIsMCwxNy43MTctNS4xNTgsMTcuNzE3LTEyLjU0NWMwLTQuMzQzLTAuOTg0LTkuMDE0LTguMTI3LTEzLjc0OGwtMS4zMDctMC43OTJjLTIuMDQ3LTEuMTg4LTQuMzY3LTIuNTM1LTQuNDIyLTUuNDgxJiMxMDsmIzk7JiM5OyYjOTtjLTAuMDI1LTEuNTI5LDEuMDQzLTQuODI4LDEuODc0LTUuNzg2YzAuNjA1LTAuNjk4LDAuNTIyLTEuMTcsMC4zNDctMS40NDNjLTAuMzA3LTAuNDc5LTEuMDkyLTAuNTg3LTIuMS0wLjI5MiYjMTA7JiM5OyYjOTsmIzk7Yy0wLjg1NiwwLjI1Mi0xLjg2NiwxLjA5Mi0yLjUyMiwxLjY5NWMtMC4xNTctMC45MDUtMC40NjMtMi4xMS0xLjA0OC0yLjUzNUwxNy41MTksMEMxNi41NDYsMC4yMDgsMTUuOTIzLDIuMDM2LDE1LjU5OSwzLjI4NXomIzEwOyYjOTsmIzk7JiM5OyBNMTcuNzExLDAuODk4YzAuMjU4LDAuMTE4LDAuNjU2LDEuNDc0LDAuNzkzLDIuNzg4bDAuMTAzLDAuOTgybDAuNjg2LTAuNzExYzAuNDctMC40ODksMS44ODYtMS44MTMsMi43NzUtMi4wNzYmIzEwOyYjOTsmIzk7JiM5O2MwLjYxMi0wLjE4LDAuOTYyLTAuMTI0LDEuMDUzLTAuMDc3Yy0wLjAyOSwwLjAyMS0wLjA3NywwLjEyNi0wLjI1MiwwLjMyOWMtMC45NzksMS4xMjctMi4xLDQuNTI0LTIuMSw2LjMzNCYjMTA7JiM5OyYjOTsmIzk7YzAsMC4wMjQsMCwwLjA0NywwLjAwMSwwLjA3YzAuMDYzLDMuNDY1LDIuNzMzLDUuMDE1LDQuODc5LDYuMjZsMS4yNiwwLjc2M2M2LjQwNCw0LjI0NCw3LjcxNyw4LjI1OSw3LjcxNywxMi45ODImIzEwOyYjOTsmIzk7JiM5O2MwLDYuODQ2LTYuOTA4LDExLjYyNy0xNi43OTksMTEuNjI3Yy0xMS42OCwwLTE2LjkwOC02LjAyOS0xNi45MDgtMTIuMDA0YzAtNC44NzgsMi40MzgtOC45NTEsNi44NjMtMTEuNDY3bDQuNDA4LTIuMzg1JiMxMDsmIzk7JiM5OyYjOTtjMS43NTItMC45MTQsMy4wMTctMS41NzQsNC4xNDUtMi40NDJjMC40NDMtMC4zNDEsMC42NzYtMC44MjksMC42NzYtMS40MTVjMC0wLjAyMSwwLTAuMDQzLTAuMDAxLTAuMDY0JiMxMDsmIzk7JiM5OyYjOTtjLTAuMDYxLTIuMTA5LTMuMDA3LTQuOTkzLTQuMTY5LTUuNzg1bC0wLjU4My0wLjQwOWMtMC41OTgtMC40MjctMC45NzUtMC42NzctMi4wNS0xLjEwNmMwLjYxLTAuMzc2LDEuNTYyLTAuNzk5LDIuNTIxLTAuNTAyJiMxMDsmIzk7JiM5OyYjOTtjMi4wMjEsMC42MjUsMy44NiwzLjA3MSwzLjg3OCwzLjA5NmwwLjczNy0wLjU0OGMtMC4wMzQtMC4wNDYtMC40MDYtMC41MzItMC45ODItMS4xMjdDMTYuNzI4LDIuNDQsMTcuMzU0LDAuOTc1LDE3LjcxMSwwLjg5OHoiLz4mI3hhOwk8L2c+JiN4YTsJPGc+JiN4YTsJCTxwYXRoIGQ9Ik0yMi43MzcsNi41MWMtMC4wMzUtMC4zMTktMC4yMTMtMC43OTctMS43NTQtMC41NjcmIzEwOyYjOTsmIzk7JiM5O2MtMS44MzYsMC4yNzQtNS41NzIsMS4xNjQtNi4zOTgsMS41NzdjLTAuNzQ0LDAuMzczLTEuMDEsMC43OTktMC43MjcsMS4yMjNjMC4yODMsMC40MjYsMS40MTgsMC40OTcsMS40MTgsMC40OTcmIzEwOyYjOTsmIzk7JiM5O3MtMS4wNjIsMC41MzEtMC44NjksMS4wNDZjMC4yMjEsMC41ODEsMS4wMzUsMC41ODEsMi45OTYsMC4xNTlDMTguNTQ1LDEwLjE5OCwyMSw5LjY2NSwyMi4wODEsOS4zMSYjMTA7JiM5OyYjOTsmIzk7YzEuMDgyLTAuMzU0LDEuMjI3LTEuMDk3LDEuMTctMS4zNjRjLTAuMDk2LTAuNDYzLTEuMTctMC41MzItMS4xNy0wLjUzMlMyMi43NzIsNi44MjgsMjIuNzM3LDYuNTF6IiBmaWxsPSIjRkVFODRDIi8+JiN4YTsJCTxwYXRoIGQ9Ik0yMC45MTYsNS40ODhjLTEuNzI3LDAuMjU4LTUuNjA3LDEuMTU2LTYuNTM3LDEuNjIxYy0wLjYwNSwwLjMwNC0wLjk1MiwwLjY0Ny0xLjA1OSwxLjA1MWwwLjE1NiwwLjgzOCYjMTA7JiM5OyYjOTsmIzk7YzAuMTYsMC4yNCwwLjQ0OCwwLjM4NiwwLjc0NSwwLjQ5Yy0wLjE2NSwwLjE5My0wLjMsMC40MDktMC4zLDAuNjYyYzAsMC4wOTYsMC4wMTcsMC4xOTQsMC4wNTUsMC4yOTcmIzEwOyYjOTsmIzk7JiM5O2MwLjM5MiwxLjAzMiwxLjc2NywwLjgyNCwzLjUyMywwLjQ0N2MxLjUzOC0wLjMzMiwzLjcwMS0wLjgxMSw0LjcyNS0xLjE0N2MxLjEyNC0wLjM2OCwxLjQ5Ni0xLjE1OSwxLjQ5Ni0xLjY5MiYjMTA7JiM5OyYjOTsmIzk7YzAtMC4wNzMtMC4wMDctMC4xNDItMC4wMjEtMC4yMDRjLTAuMDc4LTAuMzc5LTAuNC0wLjU5Ni0wLjc0My0wLjcyNGMwLjEzMy0wLjE5NCwwLjI0MS0wLjM5NiwwLjI0MS0wLjU5NiYjMTA7JiM5OyYjOTsmIzk7YzAtMC4wMjQtMC4wMDItMC4wNDgtMC4wMDQtMC4wNzFsLTAuMzk4LTAuNzQ0QzIyLjQxOSw1LjQyNSwyMS44MjIsNS4zNTMsMjAuOTE2LDUuNDg4eiBNMTQuODM2LDEwLjEyMiYjMTA7JiM5OyYjOTsmIzk7YzAuMDM1LTAuMDY3LDAuMzUyLTAuMzI0LDAuNjQ2LTAuNDcybDEuNTA0LTAuNzU5bC0xLjY4MS0wLjExYy0wLjQ1LTAuMDI5LTAuOTc4LTAuMTc1LTEuMDY1LTAuMjkzJiMxMDsmIzk7JiM5OyYjOTtjLTAuMDI2LTAuMTEzLDAuMDM2LTAuMjk5LDAuNTUxLTAuNTU3YzAuNzE3LTAuMzU4LDQuMzQ1LTEuMjQ3LDYuMjYxLTEuNTM0YzAuODk2LTAuMTMzLDEuMTQ0LDAuMDE1LDEuMTg0LDAuMDQ2JiMxMDsmIzk7JiM5OyYjOTtjMCwwLDAuMDE3LDAuMDQyLDAuMDMsMC4wNzdjLTAuMDUsMC4xMTItMC4yNjgsMC4zNjEtMC40ODEsMC41NDJsLTAuODYxLDAuNzMybDEuMTI4LDAuMDc3YzAuMzEzLDAuMDIxLDAuNjk1LDAuMTI2LDAuNzcsMC4yMTImIzEwOyYjOTsmIzk7JiM5O2MtMC4wMDIsMC4wNjUtMC4wOTksMC41MzMtMC44ODIsMC43ODljLTEuMDk3LDAuMzYxLTMuNzU4LDAuOTM0LTQuNjMyLDEuMTIyQzE2LjczLDEwLjExOSwxNC45NzgsMTAuNDk2LDE0LjgzNiwxMC4xMjJ6JiMxMDsmIzk7JiM5OyYjOTsgTTIzLjE5NCw2LjQ1OWwtMC4wMS0wLjA4OEwyMy4xOTQsNi40NTl6IE0yMy4xOTQsNi40NTlMMjMuMTk0LDYuNDU5TDIzLjE5NCw2LjQ1OUwyMy4xOTQsNi40NTl6Ii8+JiN4YTsJPC9nPiYjeGE7CTxnPiYjeGE7CQk8cmVjdCBoZWlnaHQ9IjcuMjc3IiB3aWR0aD0iMC45MTkiIHRyYW5zZm9ybT0ibWF0cml4KC0wLjI0NTUgLTAuOTY5NCAwLjk2OTQgLTAuMjQ1NSAxNS4wNDMzIDI4LjM5NjUpIiB5PSI0LjcwNiIgeD0iMTguMTEzIi8+JiN4YTsJPC9nPiYjeGE7CTxnPiYjeGE7CQk8cGF0aCBkPSJNMTcuNjUxLDM2Ljk2di0yLjAyN2MtMS4wMS0wLjEyNy0xLjgyNi0wLjM1Mi0yLjQ1Ny0wLjY3NGMtMC42MzEtMC4zMjQtMS4xNzYtMC44NDYtMS42MzUtMS41NyYjMTA7JiM5OyYjOTsmIzk7Yy0wLjQ1Ny0wLjcyMS0wLjcyNS0xLjYwNC0wLjc5OS0yLjY0NWwyLjAyNy0wLjM4N2MwLjE1NiwxLjA4LDAuNDMyLDEuODc1LDAuODI4LDIuMzgxYzAuNTY2LDAuNzE3LDEuMjQ0LDEuMTEzLDIuMDM1LDEuMTk1JiMxMDsmIzk7JiM5OyYjOTt2LTYuMzIyYy0wLjgyMi0wLjIxNS0xLjY2OC0wLjU2NC0yLjUzMS0xLjA0OWMtMC42NDEtMC4zNTctMS4xMzctMC44NTItMS40OC0xLjQ4NGMtMC4zNDgtMC42MzUtMC41MjEtMS4zNTUtMC41MjEtMi4xNjImIzEwOyYjOTsmIzk7JiM5O2MwLTEuNDMsMC41MDYtMi41OSwxLjUyLTMuNDc4YzAuNjc2LTAuNTk3LDEuNjgtMC45NjIsMy4wMTQtMS4wOTd2LTAuOTUzaDEuMTkxdjAuOTUzYzEuMTY0LDAuMTE0LDIuMDg4LDAuNDU4LDIuNzczLDEuMDM0JiMxMDsmIzk7JiM5OyYjOTtjMC44NzMsMC43MzQsMS40LDEuNzQxLDEuNTc4LDMuMDIxbC0yLjA1NywwLjMyOGMtMC4xMTktMC43OTktMC4zNjUtMS40MTItMC43NDQtMS44MzhjLTAuMzc3LTAuNDI4LTAuODk1LTAuNzA4LTEuNTUxLTAuODQ1JiMxMDsmIzk7JiM5OyYjOTt2NS43ODljMS4wMTQsMC4yNjYsMS42ODQsMC40NjksMi4wMSwwLjYxMWMwLjYyNywwLjI3NSwxLjEzNywwLjYxMSwxLjUzMSwxLjAwNnMwLjY5OSwwLjg2MywwLjkxLDEuNDA2JiMxMDsmIzk7JiM5OyYjOTtjMC4yMTMsMC41NDUsMC4zMTgsMS4xMzMsMC4zMTgsMS43NjZjMCwxLjM5NS0wLjQ0MywyLjU1Ny0xLjMyOCwzLjQ4NmMtMC44ODcsMC45MzItMi4wMzUsMS40MzItMy40NDEsMS40OTh2Mi4wNTdIMTcuNjUxeiYjMTA7JiM5OyYjOTsmIzk7IE0xNy42NTEsMTkuMzEyYy0wLjc3NywwLjExOS0xLjM4OSwwLjQzMy0xLjgzNCwwLjkzOGMtMC40NDcsMC41MDgtMC42NzIsMS4xMDktMC42NzIsMS44MDJjMCwwLjY4NiwwLjE5MSwxLjI2LDAuNTcsMS43MjMmIzEwOyYjOTsmIzk7JiM5O2MwLjM3OSwwLjQ2MSwxLjAyMywwLjgwOSwxLjkzNiwxLjA0NVYxOS4zMTJ6IE0xOC44NDIsMzMuMjM0YzAuNzgzLTAuMDk4LDEuNDMyLTAuNDM0LDEuOTQ1LTEuMDE2JiMxMDsmIzk7JiM5OyYjOTtjMC41MTItMC41OCwwLjc2OC0xLjI5NywwLjc2OC0yLjE1MmMwLTAuNzMtMC4xODItMS4zMTQtMC41NDktMS43NThjLTAuMzY1LTAuNDQxLTEuMDg2LTAuODAzLTIuMTY0LTEuMDg0VjMzLjIzNHoiLz4mI3hhOwk8L2c+JiN4YTs8L2c+JiN4YTs8L3N2Zz4=" vertex="1" parent="yjropSwCNwgdsyY9ociL-60">
          <mxGeometry x="440" y="130" width="35.12" height="40" as="geometry" />
        </mxCell>
        <mxCell id="yjropSwCNwgdsyY9ociL-25" value="Database&#xa;[critical]" style="shape=image;verticalLabelPosition=bottom;verticalAlign=top;imageAspect=0;aspect=fixed;image=data:image/svg+xml,PHN2ZyB4bWxucz0iaHR0cDovL3d3dy53My5vcmcvMjAwMC9zdmciIHhtbG5zOnhsaW5rPSImYW1wO25zX3hsaW5rOyIgeG1sOnNwYWNlPSJwcmVzZXJ2ZSIgb3ZlcmZsb3c9InZpc2libGUiIHZpZXdCb3g9IjAgMCAzNS41NDM5OTg3MTgyNjE3MiA0MS4wODgwMDEyNTEyMjA3IiBoZWlnaHQ9IjQxLjA4ODAwMTI1MTIyMDciIHdpZHRoPSIzNS41NDM5OTg3MTgyNjE3MiIgaWQ9IkxheWVyXzEiIHZlcnNpb249IjEuMSI+JiN4YTs8Zz4mI3hhOwk8Zz4mI3hhOwkJPHBhdGggZD0iTTE1Ljg3Nyw0LjA1NGMwLDAsMC43NDQtMy4zOTIsMS43MzgtMy42MDQmIzEwOyYjOTsmIzk7JiM5O2MwLjk5Mi0wLjIxMywxLjM0NiwzLjE4OSwxLjM0NiwzLjE4OXMxLjc3My0xLjg0MywyLjk3Ny0yLjE5N2MxLjIwNS0wLjM1NCwyLjE5OS0wLjA3LDEuMjc3LDAuOTkzJiMxMDsmIzk7JiM5OyYjOTtjLTAuOTIyLDEuMDYyLTIuMDE0LDQuNDYtMS45ODYsNi4wOTZjMC4wNzIsMy44OTgsMy43MzQsNS4xOSw1LjkzNCw2LjY0N2M2LjY0Myw0LjQwMiw3LjkyMiw4LjY0NCw3LjkyMiwxMy4zNjUmIzEwOyYjOTsmIzk7JiM5O2MwLDYuODgzLTYuNzIxLDEyLjA4Ni0xNy4yNTgsMTIuMDg2Yy0xMS43NjYsMC0xNy4zNjctNi4xNjItMTcuMzY3LTEyLjQ2M2MwLTUuNDU3LDIuOTgyLTkuNTI4LDcuMDk2LTExLjg2NyYjMTA7JiM5OyYjOTsmIzk7YzQuNDM2LTIuNTI1LDYuNjU4LTMuMzczLDguNS00Ljc5MWMxLjg0Mi0xLjQxNy0xLjkxNC01LjQ1OS0zLjQ3My02LjUyMWMtMS4yNDQtMC44NDktMS4yMDUtMC45OTMtMy4zMzItMS43NzImIzEwOyYjOTsmIzk7JiM5O2MwLDAsMS43NzctMS42MzIsMy42MTUtMS4wNjNjMi4xOTMsMC42NzgsNC4xMTEsMy4yNjEsNC4xMTEsMy4yNjEiIGZpbGw9IiNDMjkwNTQiLz4mI3hhOwkJPHBhdGggZD0iTTE1LjU5OSwzLjI4NWMtMC43MzEtMC42NDEtMS42MjctMS4yNzMtMi41OTctMS41NzNjLTIuMDY2LTAuNjM5LTMuOTgxLDEuMDktNC4wNjIsMS4xNjRsLTAuNTU2LDAuNTFsMC43MDgsMC4yNTkmIzEwOyYjOTsmIzk7JiM5O2MxLjY2NywwLjYxMSwxLjkzLDAuNzk5LDIuNjMyLDEuM2wwLjU5OSwwLjQyYzEuMjY5LDAuODY1LDMuNzI0LDMuNTA2LDMuNzY5LDUuMDUzYzAuMDA5LDAuMzIxLTAuMDkyLDAuNTUyLTAuMzE3LDAuNzI1JiMxMDsmIzk7JiM5OyYjOTtjLTEuMDYzLDAuODE5LTIuMjk5LDEuNDYzLTQuMDA5LDIuMzU1TDcuMzI4LDE1LjlDMi42NzEsMTguNTQ3LDAsMjMuMDE4LDAsMjguMTY2YzAsNi40MzIsNS41MTIsMTIuOTIyLDE3LjgyNywxMi45MjImIzEwOyYjOTsmIzk7JiM5O2MxMC40MzIsMCwxNy43MTctNS4xNTgsMTcuNzE3LTEyLjU0NWMwLTQuMzQzLTAuOTg0LTkuMDE0LTguMTI3LTEzLjc0OGwtMS4zMDctMC43OTJjLTIuMDQ3LTEuMTg4LTQuMzY3LTIuNTM1LTQuNDIyLTUuNDgxJiMxMDsmIzk7JiM5OyYjOTtjLTAuMDI1LTEuNTI5LDEuMDQzLTQuODI4LDEuODc0LTUuNzg2YzAuNjA1LTAuNjk4LDAuNTIyLTEuMTcsMC4zNDctMS40NDNjLTAuMzA3LTAuNDc5LTEuMDkyLTAuNTg3LTIuMS0wLjI5MiYjMTA7JiM5OyYjOTsmIzk7Yy0wLjg1NiwwLjI1Mi0xLjg2NiwxLjA5Mi0yLjUyMiwxLjY5NWMtMC4xNTctMC45MDUtMC40NjMtMi4xMS0xLjA0OC0yLjUzNUwxNy41MTksMEMxNi41NDYsMC4yMDgsMTUuOTIzLDIuMDM2LDE1LjU5OSwzLjI4NXomIzEwOyYjOTsmIzk7JiM5OyBNMTcuNzExLDAuODk4YzAuMjU4LDAuMTE4LDAuNjU2LDEuNDc0LDAuNzkzLDIuNzg4bDAuMTAzLDAuOTgybDAuNjg2LTAuNzExYzAuNDctMC40ODksMS44ODYtMS44MTMsMi43NzUtMi4wNzYmIzEwOyYjOTsmIzk7JiM5O2MwLjYxMi0wLjE4LDAuOTYyLTAuMTI0LDEuMDUzLTAuMDc3Yy0wLjAyOSwwLjAyMS0wLjA3NywwLjEyNi0wLjI1MiwwLjMyOWMtMC45NzksMS4xMjctMi4xLDQuNTI0LTIuMSw2LjMzNCYjMTA7JiM5OyYjOTsmIzk7YzAsMC4wMjQsMCwwLjA0NywwLjAwMSwwLjA3YzAuMDYzLDMuNDY1LDIuNzMzLDUuMDE1LDQuODc5LDYuMjZsMS4yNiwwLjc2M2M2LjQwNCw0LjI0NCw3LjcxNyw4LjI1OSw3LjcxNywxMi45ODImIzEwOyYjOTsmIzk7JiM5O2MwLDYuODQ2LTYuOTA4LDExLjYyNy0xNi43OTksMTEuNjI3Yy0xMS42OCwwLTE2LjkwOC02LjAyOS0xNi45MDgtMTIuMDA0YzAtNC44NzgsMi40MzgtOC45NTEsNi44NjMtMTEuNDY3bDQuNDA4LTIuMzg1JiMxMDsmIzk7JiM5OyYjOTtjMS43NTItMC45MTQsMy4wMTctMS41NzQsNC4xNDUtMi40NDJjMC40NDMtMC4zNDEsMC42NzYtMC44MjksMC42NzYtMS40MTVjMC0wLjAyMSwwLTAuMDQzLTAuMDAxLTAuMDY0JiMxMDsmIzk7JiM5OyYjOTtjLTAuMDYxLTIuMTA5LTMuMDA3LTQuOTkzLTQuMTY5LTUuNzg1bC0wLjU4My0wLjQwOWMtMC41OTgtMC40MjctMC45NzUtMC42NzctMi4wNS0xLjEwNmMwLjYxLTAuMzc2LDEuNTYyLTAuNzk5LDIuNTIxLTAuNTAyJiMxMDsmIzk7JiM5OyYjOTtjMi4wMjEsMC42MjUsMy44NiwzLjA3MSwzLjg3OCwzLjA5NmwwLjczNy0wLjU0OGMtMC4wMzQtMC4wNDYtMC40MDYtMC41MzItMC45ODItMS4xMjdDMTYuNzI4LDIuNDQsMTcuMzU0LDAuOTc1LDE3LjcxMSwwLjg5OHoiLz4mI3hhOwk8L2c+JiN4YTsJPGc+JiN4YTsJCTxwYXRoIGQ9Ik0yMi43MzcsNi41MWMtMC4wMzUtMC4zMTktMC4yMTMtMC43OTctMS43NTQtMC41NjcmIzEwOyYjOTsmIzk7JiM5O2MtMS44MzYsMC4yNzQtNS41NzIsMS4xNjQtNi4zOTgsMS41NzdjLTAuNzQ0LDAuMzczLTEuMDEsMC43OTktMC43MjcsMS4yMjNjMC4yODMsMC40MjYsMS40MTgsMC40OTcsMS40MTgsMC40OTcmIzEwOyYjOTsmIzk7JiM5O3MtMS4wNjIsMC41MzEtMC44NjksMS4wNDZjMC4yMjEsMC41ODEsMS4wMzUsMC41ODEsMi45OTYsMC4xNTlDMTguNTQ1LDEwLjE5OCwyMSw5LjY2NSwyMi4wODEsOS4zMSYjMTA7JiM5OyYjOTsmIzk7YzEuMDgyLTAuMzU0LDEuMjI3LTEuMDk3LDEuMTctMS4zNjRjLTAuMDk2LTAuNDYzLTEuMTctMC41MzItMS4xNy0wLjUzMlMyMi43NzIsNi44MjgsMjIuNzM3LDYuNTF6IiBmaWxsPSIjRkVFODRDIi8+JiN4YTsJCTxwYXRoIGQ9Ik0yMC45MTYsNS40ODhjLTEuNzI3LDAuMjU4LTUuNjA3LDEuMTU2LTYuNTM3LDEuNjIxYy0wLjYwNSwwLjMwNC0wLjk1MiwwLjY0Ny0xLjA1OSwxLjA1MWwwLjE1NiwwLjgzOCYjMTA7JiM5OyYjOTsmIzk7YzAuMTYsMC4yNCwwLjQ0OCwwLjM4NiwwLjc0NSwwLjQ5Yy0wLjE2NSwwLjE5My0wLjMsMC40MDktMC4zLDAuNjYyYzAsMC4wOTYsMC4wMTcsMC4xOTQsMC4wNTUsMC4yOTcmIzEwOyYjOTsmIzk7JiM5O2MwLjM5MiwxLjAzMiwxLjc2NywwLjgyNCwzLjUyMywwLjQ0N2MxLjUzOC0wLjMzMiwzLjcwMS0wLjgxMSw0LjcyNS0xLjE0N2MxLjEyNC0wLjM2OCwxLjQ5Ni0xLjE1OSwxLjQ5Ni0xLjY5MiYjMTA7JiM5OyYjOTsmIzk7YzAtMC4wNzMtMC4wMDctMC4xNDItMC4wMjEtMC4yMDRjLTAuMDc4LTAuMzc5LTAuNC0wLjU5Ni0wLjc0My0wLjcyNGMwLjEzMy0wLjE5NCwwLjI0MS0wLjM5NiwwLjI0MS0wLjU5NiYjMTA7JiM5OyYjOTsmIzk7YzAtMC4wMjQtMC4wMDItMC4wNDgtMC4wMDQtMC4wNzFsLTAuMzk4LTAuNzQ0QzIyLjQxOSw1LjQyNSwyMS44MjIsNS4zNTMsMjAuOTE2LDUuNDg4eiBNMTQuODM2LDEwLjEyMiYjMTA7JiM5OyYjOTsmIzk7YzAuMDM1LTAuMDY3LDAuMzUyLTAuMzI0LDAuNjQ2LTAuNDcybDEuNTA0LTAuNzU5bC0xLjY4MS0wLjExYy0wLjQ1LTAuMDI5LTAuOTc4LTAuMTc1LTEuMDY1LTAuMjkzJiMxMDsmIzk7JiM5OyYjOTtjLTAuMDI2LTAuMTEzLDAuMDM2LTAuMjk5LDAuNTUxLTAuNTU3YzAuNzE3LTAuMzU4LDQuMzQ1LTEuMjQ3LDYuMjYxLTEuNTM0YzAuODk2LTAuMTMzLDEuMTQ0LDAuMDE1LDEuMTg0LDAuMDQ2JiMxMDsmIzk7JiM5OyYjOTtjMCwwLDAuMDE3LDAuMDQyLDAuMDMsMC4wNzdjLTAuMDUsMC4xMTItMC4yNjgsMC4zNjEtMC40ODEsMC41NDJsLTAuODYxLDAuNzMybDEuMTI4LDAuMDc3YzAuMzEzLDAuMDIxLDAuNjk1LDAuMTI2LDAuNzcsMC4yMTImIzEwOyYjOTsmIzk7JiM5O2MtMC4wMDIsMC4wNjUtMC4wOTksMC41MzMtMC44ODIsMC43ODljLTEuMDk3LDAuMzYxLTMuNzU4LDAuOTM0LTQuNjMyLDEuMTIyQzE2LjczLDEwLjExOSwxNC45NzgsMTAuNDk2LDE0LjgzNiwxMC4xMjJ6JiMxMDsmIzk7JiM5OyYjOTsgTTIzLjE5NCw2LjQ1OWwtMC4wMS0wLjA4OEwyMy4xOTQsNi40NTl6IE0yMy4xOTQsNi40NTlMMjMuMTk0LDYuNDU5TDIzLjE5NCw2LjQ1OUwyMy4xOTQsNi40NTl6Ii8+JiN4YTsJPC9nPiYjeGE7CTxnPiYjeGE7CQk8cmVjdCBoZWlnaHQ9IjcuMjc3IiB3aWR0aD0iMC45MTkiIHRyYW5zZm9ybT0ibWF0cml4KC0wLjI0NTUgLTAuOTY5NCAwLjk2OTQgLTAuMjQ1NSAxNS4wNDMzIDI4LjM5NjUpIiB5PSI0LjcwNiIgeD0iMTguMTEzIi8+JiN4YTsJPC9nPiYjeGE7CTxnPiYjeGE7CQk8cGF0aCBkPSJNMTcuNjUxLDM2Ljk2di0yLjAyN2MtMS4wMS0wLjEyNy0xLjgyNi0wLjM1Mi0yLjQ1Ny0wLjY3NGMtMC42MzEtMC4zMjQtMS4xNzYtMC44NDYtMS42MzUtMS41NyYjMTA7JiM5OyYjOTsmIzk7Yy0wLjQ1Ny0wLjcyMS0wLjcyNS0xLjYwNC0wLjc5OS0yLjY0NWwyLjAyNy0wLjM4N2MwLjE1NiwxLjA4LDAuNDMyLDEuODc1LDAuODI4LDIuMzgxYzAuNTY2LDAuNzE3LDEuMjQ0LDEuMTEzLDIuMDM1LDEuMTk1JiMxMDsmIzk7JiM5OyYjOTt2LTYuMzIyYy0wLjgyMi0wLjIxNS0xLjY2OC0wLjU2NC0yLjUzMS0xLjA0OWMtMC42NDEtMC4zNTctMS4xMzctMC44NTItMS40OC0xLjQ4NGMtMC4zNDgtMC42MzUtMC41MjEtMS4zNTUtMC41MjEtMi4xNjImIzEwOyYjOTsmIzk7JiM5O2MwLTEuNDMsMC41MDYtMi41OSwxLjUyLTMuNDc4YzAuNjc2LTAuNTk3LDEuNjgtMC45NjIsMy4wMTQtMS4wOTd2LTAuOTUzaDEuMTkxdjAuOTUzYzEuMTY0LDAuMTE0LDIuMDg4LDAuNDU4LDIuNzczLDEuMDM0JiMxMDsmIzk7JiM5OyYjOTtjMC44NzMsMC43MzQsMS40LDEuNzQxLDEuNTc4LDMuMDIxbC0yLjA1NywwLjMyOGMtMC4xMTktMC43OTktMC4zNjUtMS40MTItMC43NDQtMS44MzhjLTAuMzc3LTAuNDI4LTAuODk1LTAuNzA4LTEuNTUxLTAuODQ1JiMxMDsmIzk7JiM5OyYjOTt2NS43ODljMS4wMTQsMC4yNjYsMS42ODQsMC40NjksMi4wMSwwLjYxMWMwLjYyNywwLjI3NSwxLjEzNywwLjYxMSwxLjUzMSwxLjAwNnMwLjY5OSwwLjg2MywwLjkxLDEuNDA2JiMxMDsmIzk7JiM5OyYjOTtjMC4yMTMsMC41NDUsMC4zMTgsMS4xMzMsMC4zMTgsMS43NjZjMCwxLjM5NS0wLjQ0MywyLjU1Ny0xLjMyOCwzLjQ4NmMtMC44ODcsMC45MzItMi4wMzUsMS40MzItMy40NDEsMS40OTh2Mi4wNTdIMTcuNjUxeiYjMTA7JiM5OyYjOTsmIzk7IE0xNy42NTEsMTkuMzEyYy0wLjc3NywwLjExOS0xLjM4OSwwLjQzMy0xLjgzNCwwLjkzOGMtMC40NDcsMC41MDgtMC42NzIsMS4xMDktMC42NzIsMS44MDJjMCwwLjY4NiwwLjE5MSwxLjI2LDAuNTcsMS43MjMmIzEwOyYjOTsmIzk7JiM5O2MwLjM3OSwwLjQ2MSwxLjAyMywwLjgwOSwxLjkzNiwxLjA0NVYxOS4zMTJ6IE0xOC44NDIsMzMuMjM0YzAuNzgzLTAuMDk4LDEuNDMyLTAuNDM0LDEuOTQ1LTEuMDE2JiMxMDsmIzk7JiM5OyYjOTtjMC41MTItMC41OCwwLjc2OC0xLjI5NywwLjc2OC0yLjE1MmMwLTAuNzMtMC4xODItMS4zMTQtMC41NDktMS43NThjLTAuMzY1LTAuNDQxLTEuMDg2LTAuODAzLTIuMTY0LTEuMDg0VjMzLjIzNHoiLz4mI3hhOwk8L2c+JiN4YTs8L2c+JiN4YTs8L3N2Zz4=" vertex="1" parent="yjropSwCNwgdsyY9ociL-60">
          <mxGeometry x="90.00000000000003" y="120" width="35.12" height="40" as="geometry" />
        </mxCell>
        <mxCell id="yjropSwCNwgdsyY9ociL-26" value="Web Server&#xa;Infrastructure&#xa;[critical]" style="shape=image;verticalLabelPosition=bottom;verticalAlign=top;imageAspect=0;aspect=fixed;image=data:image/svg+xml,PHN2ZyB4bWxucz0iaHR0cDovL3d3dy53My5vcmcvMjAwMC9zdmciIHhtbG5zOnhsaW5rPSImYW1wO25zX3hsaW5rOyIgeG1sOnNwYWNlPSJwcmVzZXJ2ZSIgb3ZlcmZsb3c9InZpc2libGUiIHZpZXdCb3g9IjAgMCAzNS41NDM5OTg3MTgyNjE3MiA0MS4wODgwMDEyNTEyMjA3IiBoZWlnaHQ9IjQxLjA4ODAwMTI1MTIyMDciIHdpZHRoPSIzNS41NDM5OTg3MTgyNjE3MiIgaWQ9IkxheWVyXzEiIHZlcnNpb249IjEuMSI+JiN4YTs8Zz4mI3hhOwk8Zz4mI3hhOwkJPHBhdGggZD0iTTE1Ljg3Nyw0LjA1NGMwLDAsMC43NDQtMy4zOTIsMS43MzgtMy42MDQmIzEwOyYjOTsmIzk7JiM5O2MwLjk5Mi0wLjIxMywxLjM0NiwzLjE4OSwxLjM0NiwzLjE4OXMxLjc3My0xLjg0MywyLjk3Ny0yLjE5N2MxLjIwNS0wLjM1NCwyLjE5OS0wLjA3LDEuMjc3LDAuOTkzJiMxMDsmIzk7JiM5OyYjOTtjLTAuOTIyLDEuMDYyLTIuMDE0LDQuNDYtMS45ODYsNi4wOTZjMC4wNzIsMy44OTgsMy43MzQsNS4xOSw1LjkzNCw2LjY0N2M2LjY0Myw0LjQwMiw3LjkyMiw4LjY0NCw3LjkyMiwxMy4zNjUmIzEwOyYjOTsmIzk7JiM5O2MwLDYuODgzLTYuNzIxLDEyLjA4Ni0xNy4yNTgsMTIuMDg2Yy0xMS43NjYsMC0xNy4zNjctNi4xNjItMTcuMzY3LTEyLjQ2M2MwLTUuNDU3LDIuOTgyLTkuNTI4LDcuMDk2LTExLjg2NyYjMTA7JiM5OyYjOTsmIzk7YzQuNDM2LTIuNTI1LDYuNjU4LTMuMzczLDguNS00Ljc5MWMxLjg0Mi0xLjQxNy0xLjkxNC01LjQ1OS0zLjQ3My02LjUyMWMtMS4yNDQtMC44NDktMS4yMDUtMC45OTMtMy4zMzItMS43NzImIzEwOyYjOTsmIzk7JiM5O2MwLDAsMS43NzctMS42MzIsMy42MTUtMS4wNjNjMi4xOTMsMC42NzgsNC4xMTEsMy4yNjEsNC4xMTEsMy4yNjEiIGZpbGw9IiNDMjkwNTQiLz4mI3hhOwkJPHBhdGggZD0iTTE1LjU5OSwzLjI4NWMtMC43MzEtMC42NDEtMS42MjctMS4yNzMtMi41OTctMS41NzNjLTIuMDY2LTAuNjM5LTMuOTgxLDEuMDktNC4wNjIsMS4xNjRsLTAuNTU2LDAuNTFsMC43MDgsMC4yNTkmIzEwOyYjOTsmIzk7JiM5O2MxLjY2NywwLjYxMSwxLjkzLDAuNzk5LDIuNjMyLDEuM2wwLjU5OSwwLjQyYzEuMjY5LDAuODY1LDMuNzI0LDMuNTA2LDMuNzY5LDUuMDUzYzAuMDA5LDAuMzIxLTAuMDkyLDAuNTUyLTAuMzE3LDAuNzI1JiMxMDsmIzk7JiM5OyYjOTtjLTEuMDYzLDAuODE5LTIuMjk5LDEuNDYzLTQuMDA5LDIuMzU1TDcuMzI4LDE1LjlDMi42NzEsMTguNTQ3LDAsMjMuMDE4LDAsMjguMTY2YzAsNi40MzIsNS41MTIsMTIuOTIyLDE3LjgyNywxMi45MjImIzEwOyYjOTsmIzk7JiM5O2MxMC40MzIsMCwxNy43MTctNS4xNTgsMTcuNzE3LTEyLjU0NWMwLTQuMzQzLTAuOTg0LTkuMDE0LTguMTI3LTEzLjc0OGwtMS4zMDctMC43OTJjLTIuMDQ3LTEuMTg4LTQuMzY3LTIuNTM1LTQuNDIyLTUuNDgxJiMxMDsmIzk7JiM5OyYjOTtjLTAuMDI1LTEuNTI5LDEuMDQzLTQuODI4LDEuODc0LTUuNzg2YzAuNjA1LTAuNjk4LDAuNTIyLTEuMTcsMC4zNDctMS40NDNjLTAuMzA3LTAuNDc5LTEuMDkyLTAuNTg3LTIuMS0wLjI5MiYjMTA7JiM5OyYjOTsmIzk7Yy0wLjg1NiwwLjI1Mi0xLjg2NiwxLjA5Mi0yLjUyMiwxLjY5NWMtMC4xNTctMC45MDUtMC40NjMtMi4xMS0xLjA0OC0yLjUzNUwxNy41MTksMEMxNi41NDYsMC4yMDgsMTUuOTIzLDIuMDM2LDE1LjU5OSwzLjI4NXomIzEwOyYjOTsmIzk7JiM5OyBNMTcuNzExLDAuODk4YzAuMjU4LDAuMTE4LDAuNjU2LDEuNDc0LDAuNzkzLDIuNzg4bDAuMTAzLDAuOTgybDAuNjg2LTAuNzExYzAuNDctMC40ODksMS44ODYtMS44MTMsMi43NzUtMi4wNzYmIzEwOyYjOTsmIzk7JiM5O2MwLjYxMi0wLjE4LDAuOTYyLTAuMTI0LDEuMDUzLTAuMDc3Yy0wLjAyOSwwLjAyMS0wLjA3NywwLjEyNi0wLjI1MiwwLjMyOWMtMC45NzksMS4xMjctMi4xLDQuNTI0LTIuMSw2LjMzNCYjMTA7JiM5OyYjOTsmIzk7YzAsMC4wMjQsMCwwLjA0NywwLjAwMSwwLjA3YzAuMDYzLDMuNDY1LDIuNzMzLDUuMDE1LDQuODc5LDYuMjZsMS4yNiwwLjc2M2M2LjQwNCw0LjI0NCw3LjcxNyw4LjI1OSw3LjcxNywxMi45ODImIzEwOyYjOTsmIzk7JiM5O2MwLDYuODQ2LTYuOTA4LDExLjYyNy0xNi43OTksMTEuNjI3Yy0xMS42OCwwLTE2LjkwOC02LjAyOS0xNi45MDgtMTIuMDA0YzAtNC44NzgsMi40MzgtOC45NTEsNi44NjMtMTEuNDY3bDQuNDA4LTIuMzg1JiMxMDsmIzk7JiM5OyYjOTtjMS43NTItMC45MTQsMy4wMTctMS41NzQsNC4xNDUtMi40NDJjMC40NDMtMC4zNDEsMC42NzYtMC44MjksMC42NzYtMS40MTVjMC0wLjAyMSwwLTAuMDQzLTAuMDAxLTAuMDY0JiMxMDsmIzk7JiM5OyYjOTtjLTAuMDYxLTIuMTA5LTMuMDA3LTQuOTkzLTQuMTY5LTUuNzg1bC0wLjU4My0wLjQwOWMtMC41OTgtMC40MjctMC45NzUtMC42NzctMi4wNS0xLjEwNmMwLjYxLTAuMzc2LDEuNTYyLTAuNzk5LDIuNTIxLTAuNTAyJiMxMDsmIzk7JiM5OyYjOTtjMi4wMjEsMC42MjUsMy44NiwzLjA3MSwzLjg3OCwzLjA5NmwwLjczNy0wLjU0OGMtMC4wMzQtMC4wNDYtMC40MDYtMC41MzItMC45ODItMS4xMjdDMTYuNzI4LDIuNDQsMTcuMzU0LDAuOTc1LDE3LjcxMSwwLjg5OHoiLz4mI3hhOwk8L2c+JiN4YTsJPGc+JiN4YTsJCTxwYXRoIGQ9Ik0yMi43MzcsNi41MWMtMC4wMzUtMC4zMTktMC4yMTMtMC43OTctMS43NTQtMC41NjcmIzEwOyYjOTsmIzk7JiM5O2MtMS44MzYsMC4yNzQtNS41NzIsMS4xNjQtNi4zOTgsMS41NzdjLTAuNzQ0LDAuMzczLTEuMDEsMC43OTktMC43MjcsMS4yMjNjMC4yODMsMC40MjYsMS40MTgsMC40OTcsMS40MTgsMC40OTcmIzEwOyYjOTsmIzk7JiM5O3MtMS4wNjIsMC41MzEtMC44NjksMS4wNDZjMC4yMjEsMC41ODEsMS4wMzUsMC41ODEsMi45OTYsMC4xNTlDMTguNTQ1LDEwLjE5OCwyMSw5LjY2NSwyMi4wODEsOS4zMSYjMTA7JiM5OyYjOTsmIzk7YzEuMDgyLTAuMzU0LDEuMjI3LTEuMDk3LDEuMTctMS4zNjRjLTAuMDk2LTAuNDYzLTEuMTctMC41MzItMS4xNy0wLjUzMlMyMi43NzIsNi44MjgsMjIuNzM3LDYuNTF6IiBmaWxsPSIjRkVFODRDIi8+JiN4YTsJCTxwYXRoIGQ9Ik0yMC45MTYsNS40ODhjLTEuNzI3LDAuMjU4LTUuNjA3LDEuMTU2LTYuNTM3LDEuNjIxYy0wLjYwNSwwLjMwNC0wLjk1MiwwLjY0Ny0xLjA1OSwxLjA1MWwwLjE1NiwwLjgzOCYjMTA7JiM5OyYjOTsmIzk7YzAuMTYsMC4yNCwwLjQ0OCwwLjM4NiwwLjc0NSwwLjQ5Yy0wLjE2NSwwLjE5My0wLjMsMC40MDktMC4zLDAuNjYyYzAsMC4wOTYsMC4wMTcsMC4xOTQsMC4wNTUsMC4yOTcmIzEwOyYjOTsmIzk7JiM5O2MwLjM5MiwxLjAzMiwxLjc2NywwLjgyNCwzLjUyMywwLjQ0N2MxLjUzOC0wLjMzMiwzLjcwMS0wLjgxMSw0LjcyNS0xLjE0N2MxLjEyNC0wLjM2OCwxLjQ5Ni0xLjE1OSwxLjQ5Ni0xLjY5MiYjMTA7JiM5OyYjOTsmIzk7YzAtMC4wNzMtMC4wMDctMC4xNDItMC4wMjEtMC4yMDRjLTAuMDc4LTAuMzc5LTAuNC0wLjU5Ni0wLjc0My0wLjcyNGMwLjEzMy0wLjE5NCwwLjI0MS0wLjM5NiwwLjI0MS0wLjU5NiYjMTA7JiM5OyYjOTsmIzk7YzAtMC4wMjQtMC4wMDItMC4wNDgtMC4wMDQtMC4wNzFsLTAuMzk4LTAuNzQ0QzIyLjQxOSw1LjQyNSwyMS44MjIsNS4zNTMsMjAuOTE2LDUuNDg4eiBNMTQuODM2LDEwLjEyMiYjMTA7JiM5OyYjOTsmIzk7YzAuMDM1LTAuMDY3LDAuMzUyLTAuMzI0LDAuNjQ2LTAuNDcybDEuNTA0LTAuNzU5bC0xLjY4MS0wLjExYy0wLjQ1LTAuMDI5LTAuOTc4LTAuMTc1LTEuMDY1LTAuMjkzJiMxMDsmIzk7JiM5OyYjOTtjLTAuMDI2LTAuMTEzLDAuMDM2LTAuMjk5LDAuNTUxLTAuNTU3YzAuNzE3LTAuMzU4LDQuMzQ1LTEuMjQ3LDYuMjYxLTEuNTM0YzAuODk2LTAuMTMzLDEuMTQ0LDAuMDE1LDEuMTg0LDAuMDQ2JiMxMDsmIzk7JiM5OyYjOTtjMCwwLDAuMDE3LDAuMDQyLDAuMDMsMC4wNzdjLTAuMDUsMC4xMTItMC4yNjgsMC4zNjEtMC40ODEsMC41NDJsLTAuODYxLDAuNzMybDEuMTI4LDAuMDc3YzAuMzEzLDAuMDIxLDAuNjk1LDAuMTI2LDAuNzcsMC4yMTImIzEwOyYjOTsmIzk7JiM5O2MtMC4wMDIsMC4wNjUtMC4wOTksMC41MzMtMC44ODIsMC43ODljLTEuMDk3LDAuMzYxLTMuNzU4LDAuOTM0LTQuNjMyLDEuMTIyQzE2LjczLDEwLjExOSwxNC45NzgsMTAuNDk2LDE0LjgzNiwxMC4xMjJ6JiMxMDsmIzk7JiM5OyYjOTsgTTIzLjE5NCw2LjQ1OWwtMC4wMS0wLjA4OEwyMy4xOTQsNi40NTl6IE0yMy4xOTQsNi40NTlMMjMuMTk0LDYuNDU5TDIzLjE5NCw2LjQ1OUwyMy4xOTQsNi40NTl6Ii8+JiN4YTsJPC9nPiYjeGE7CTxnPiYjeGE7CQk8cmVjdCBoZWlnaHQ9IjcuMjc3IiB3aWR0aD0iMC45MTkiIHRyYW5zZm9ybT0ibWF0cml4KC0wLjI0NTUgLTAuOTY5NCAwLjk2OTQgLTAuMjQ1NSAxNS4wNDMzIDI4LjM5NjUpIiB5PSI0LjcwNiIgeD0iMTguMTEzIi8+JiN4YTsJPC9nPiYjeGE7CTxnPiYjeGE7CQk8cGF0aCBkPSJNMTcuNjUxLDM2Ljk2di0yLjAyN2MtMS4wMS0wLjEyNy0xLjgyNi0wLjM1Mi0yLjQ1Ny0wLjY3NGMtMC42MzEtMC4zMjQtMS4xNzYtMC44NDYtMS42MzUtMS41NyYjMTA7JiM5OyYjOTsmIzk7Yy0wLjQ1Ny0wLjcyMS0wLjcyNS0xLjYwNC0wLjc5OS0yLjY0NWwyLjAyNy0wLjM4N2MwLjE1NiwxLjA4LDAuNDMyLDEuODc1LDAuODI4LDIuMzgxYzAuNTY2LDAuNzE3LDEuMjQ0LDEuMTEzLDIuMDM1LDEuMTk1JiMxMDsmIzk7JiM5OyYjOTt2LTYuMzIyYy0wLjgyMi0wLjIxNS0xLjY2OC0wLjU2NC0yLjUzMS0xLjA0OWMtMC42NDEtMC4zNTctMS4xMzctMC44NTItMS40OC0xLjQ4NGMtMC4zNDgtMC42MzUtMC41MjEtMS4zNTUtMC41MjEtMi4xNjImIzEwOyYjOTsmIzk7JiM5O2MwLTEuNDMsMC41MDYtMi41OSwxLjUyLTMuNDc4YzAuNjc2LTAuNTk3LDEuNjgtMC45NjIsMy4wMTQtMS4wOTd2LTAuOTUzaDEuMTkxdjAuOTUzYzEuMTY0LDAuMTE0LDIuMDg4LDAuNDU4LDIuNzczLDEuMDM0JiMxMDsmIzk7JiM5OyYjOTtjMC44NzMsMC43MzQsMS40LDEuNzQxLDEuNTc4LDMuMDIxbC0yLjA1NywwLjMyOGMtMC4xMTktMC43OTktMC4zNjUtMS40MTItMC43NDQtMS44MzhjLTAuMzc3LTAuNDI4LTAuODk1LTAuNzA4LTEuNTUxLTAuODQ1JiMxMDsmIzk7JiM5OyYjOTt2NS43ODljMS4wMTQsMC4yNjYsMS42ODQsMC40NjksMi4wMSwwLjYxMWMwLjYyNywwLjI3NSwxLjEzNywwLjYxMSwxLjUzMSwxLjAwNnMwLjY5OSwwLjg2MywwLjkxLDEuNDA2JiMxMDsmIzk7JiM5OyYjOTtjMC4yMTMsMC41NDUsMC4zMTgsMS4xMzMsMC4zMTgsMS43NjZjMCwxLjM5NS0wLjQ0MywyLjU1Ny0xLjMyOCwzLjQ4NmMtMC44ODcsMC45MzItMi4wMzUsMS40MzItMy40NDEsMS40OTh2Mi4wNTdIMTcuNjUxeiYjMTA7JiM5OyYjOTsmIzk7IE0xNy42NTEsMTkuMzEyYy0wLjc3NywwLjExOS0xLjM4OSwwLjQzMy0xLjgzNCwwLjkzOGMtMC40NDcsMC41MDgtMC42NzIsMS4xMDktMC42NzIsMS44MDJjMCwwLjY4NiwwLjE5MSwxLjI2LDAuNTcsMS43MjMmIzEwOyYjOTsmIzk7JiM5O2MwLjM3OSwwLjQ2MSwxLjAyMywwLjgwOSwxLjkzNiwxLjA0NVYxOS4zMTJ6IE0xOC44NDIsMzMuMjM0YzAuNzgzLTAuMDk4LDEuNDMyLTAuNDM0LDEuOTQ1LTEuMDE2JiMxMDsmIzk7JiM5OyYjOTtjMC41MTItMC41OCwwLjc2OC0xLjI5NywwLjc2OC0yLjE1MmMwLTAuNzMtMC4xODItMS4zMTQtMC41NDktMS43NThjLTAuMzY1LTAuNDQxLTEuMDg2LTAuODAzLTIuMTY0LTEuMDg0VjMzLjIzNHoiLz4mI3hhOwk8L2c+JiN4YTs8L2c+JiN4YTs8L3N2Zz4=" vertex="1" parent="yjropSwCNwgdsyY9ociL-60">
          <mxGeometry x="262.44" y="17.00999999999999" width="35.12" height="40" as="geometry" />
        </mxCell>
        <mxCell id="yjropSwCNwgdsyY9ociL-27" value="Reputation&#xa;[critical]" style="shape=image;verticalLabelPosition=bottom;verticalAlign=top;imageAspect=0;aspect=fixed;image=data:image/svg+xml,PHN2ZyB4bWxuczp4bGluaz0iaHR0cDovL3d3dy53My5vcmcvMTk5OS94bGluayIgeG1sbnM9Imh0dHA6Ly93d3cudzMub3JnLzIwMDAvc3ZnIiB4bWw6c3BhY2U9InByZXNlcnZlIiBzdHlsZT0iZW5hYmxlLWJhY2tncm91bmQ6bmV3IDAgMCAzNS41IDYwLjE7IiB2aWV3Qm94PSIwLjMwMDAwMTE0NDQwOTE3OTcgMC40OTE1MTAyMTI0MjE0MTcyNCAzNC42OTk5OTY5NDgyNDIxOSA0MC4yMDg0OTIyNzkwNTI3MzQiIHk9IjBweCIgeD0iMHB4IiBpZD0iTGF5ZXJfMSIgdmVyc2lvbj0iMS4xIiB3aWR0aD0iMzQuNjk5OTk2OTQ4MjQyMTkiIGhlaWdodD0iNDAuMjA4NDkyMjc5MDUyNzM0Ij4mI3hhOyAgPHN0eWxlIHR5cGU9InRleHQvY3NzIj4mI3hhOyAgICAuc3QwIHsmI3hhOyAgICAgIGZpbGw6ICNGRkZGRkY7JiN4YTsgICAgICBzdHJva2U6ICMxRDFEMUI7JiN4YTsgICAgICBzdHJva2UtbWl0ZXJsaW1pdDogMTA7JiN4YTsgICAgICBzdHJva2UtZGFzaGFycmF5OiAyLCAxOyYjeGE7ICAgIH0mI3hhOyYjeGE7ICAgIC5zdDEgeyYjeGE7ICAgICAgZmlsbDogI0ZGRkZGRjsmI3hhOyAgICAgIHN0cm9rZTogIzAwMDAwMDsmI3hhOyAgICAgIHN0cm9rZS1taXRlcmxpbWl0OiAxMDsmI3hhOyAgICAgIHN0cm9rZS1kYXNoYXJyYXk6IDIsIDE7JiN4YTsgICAgfSYjeGE7ICA8L3N0eWxlPiYjeGE7ICA8Zz4mI3hhOyAgICA8Zz4mI3hhOyAgICAgIDxwYXRoIGQ9Ik0xNS45LDQuMWMwLDAsMC43LTMuNCwxLjctMy42YzEtMC4yLDEuMywzLjIsMS4zLDMuMnMxLjgtMS44LDMtMi4yYzEuMi0wLjQsMi4yLTAuMSwxLjMsMSYjOTsmIzk7JiM5O2MtMC45LDEuMS0yLDQuNS0yLDYuMWMwLjEsMy45LDMuNyw1LjIsNS45LDYuNmM2LjYsNC40LDcuOSw4LjYsNy45LDEzLjRjMCw2LjktNi43LDEyLjEtMTcuMywxMi4xYy0xMS44LDAtMTcuNC02LjItMTcuNC0xMi41JiM5OyYjOTsmIzk7YzAtNS41LDMtOS41LDcuMS0xMS45YzQuNC0yLjUsNi43LTMuNCw4LjUtNC44YzEuOC0xLjQtMS45LTUuNS0zLjUtNi41Yy0xLjItMC44LTEuMi0xLTMuMy0xLjhjMCwwLDEuOC0xLjYsMy42LTEuMSYjOTsmIzk7JiM5O0MxNS4xLDIuOCwxNyw1LjQsMTcsNS40IiBjbGFzcz0ic3QwIi8+JiN4YTsgICAgPC9nPiYjeGE7ICAgIDxnPiYjeGE7ICAgICAgPHBhdGggZD0iTTIyLjcsNi41YzAtMC4zLTAuMi0wLjgtMS44LTAuNmMtMS44LDAuMy01LjYsMS4yLTYuNCwxLjZjLTAuNywwLjQtMSwwLjgtMC43LDEuMmMwLjMsMC40LDQuNi0wLjIsNC42LTAuMiYjOTsmIzk7JiM5O3MtNC4zLDEuMy00LjEsMS44YzAuMiwwLjYsMSwwLjYsMywwLjJjMS4xLTAuMiwzLjYtMC44LDQuNy0xLjFjMS4xLTAuNCwxLjItMS4xLDEuMi0xLjRjLTAuMS0wLjUtNS4xLDAuOC01LjEsMC44JiM5OyYjOTsmIzk7UzIyLjgsNi44LDIyLjcsNi41eiIgY2xhc3M9InN0MSIvPiYjeGE7ICAgIDwvZz4mI3hhOyAgICA8Zz4mI3hhOyAgICAgIDxwYXRoIGQ9Ik0xNy43LDM3di0yYy0xLTAuMS0xLjgtMC40LTIuNS0wLjdjLTAuNi0wLjMtMS4yLTAuOC0xLjYtMS42Yy0wLjUtMC43LTAuNy0xLjYtMC44LTIuNmwyLTAuNGMwLjIsMS4xLDAuNCwxLjksMC44LDIuNCYjOTsmIzk7JiM5O2MwLjYsMC43LDEuMiwxLjEsMiwxLjJ2LTYuM2MtMC44LTAuMi0xLjctMC42LTIuNS0xYy0wLjYtMC40LTEuMS0wLjktMS41LTEuNWMtMC4zLTAuNi0wLjUtMS40LTAuNS0yLjJjMC0xLjQsMC41LTIuNiwxLjUtMy41JiM5OyYjOTsmIzk7YzAuNy0wLjYsMS43LTEsMy0xLjF2LTFoMS4ydjFjMS4yLDAuMSwyLjEsMC41LDIuOCwxYzAuOSwwLjcsMS40LDEuNywxLjYsM0wyMS4xLDIyYy0wLjEtMC44LTAuNC0xLjQtMC43LTEuOCYjOTsmIzk7JiM5O2MtMC40LTAuNC0wLjktMC43LTEuNi0wLjh2NS44YzEsMC4zLDEuNywwLjUsMiwwLjZjMC42LDAuMywxLjEsMC42LDEuNSwxczAuNywwLjksMC45LDEuNGMwLjIsMC41LDAuMywxLjEsMC4zLDEuOCYjOTsmIzk7JiM5O2MwLDEuNC0wLjQsMi42LTEuMywzLjVjLTAuOSwwLjktMiwxLjQtMy40LDEuNVYzN0gxNy43eiBNMTcuNywxOS4zYy0wLjgsMC4xLTEuNCwwLjQtMS44LDAuOWMtMC40LDAuNS0wLjcsMS4xLTAuNywxLjgmIzk7JiM5OyYjOTtjMCwwLjcsMC4yLDEuMywwLjYsMS43YzAuNCwwLjUsMSwwLjgsMS45LDFWMTkuM3ogTTE4LjgsMzMuMmMwLjgtMC4xLDEuNC0wLjQsMS45LTFjMC41LTAuNiwwLjgtMS4zLDAuOC0yLjImIzk7JiM5OyYjOTtjMC0wLjctMC4yLTEuMy0wLjUtMS44Yy0wLjQtMC40LTEuMS0wLjgtMi4yLTEuMVYzMy4yeiIvPiYjeGE7ICAgIDwvZz4mI3hhOyAgPC9nPiYjeGE7PC9zdmc+" vertex="1" parent="yjropSwCNwgdsyY9ociL-60">
          <mxGeometry x="430" y="300" width="35" height="40" as="geometry" />
        </mxCell>
        <mxCell id="yjropSwCNwgdsyY9ociL-53" value="" style="endArrow=classic;html=1;rounded=0;exitX=0;exitY=0.75;exitDx=0;exitDy=0;" edge="1" parent="yjropSwCNwgdsyY9ociL-60" source="yjropSwCNwgdsyY9ociL-26">
          <mxGeometry width="50" height="50" relative="1" as="geometry">
            <mxPoint x="180" y="80" as="sourcePoint" />
            <mxPoint x="120" y="130" as="targetPoint" />
          </mxGeometry>
        </mxCell>
        <mxCell id="yjropSwCNwgdsyY9ociL-54" value="" style="endArrow=classic;html=1;rounded=0;exitX=1;exitY=0.75;exitDx=0;exitDy=0;entryX=0;entryY=0.25;entryDx=0;entryDy=0;" edge="1" parent="yjropSwCNwgdsyY9ociL-60" source="yjropSwCNwgdsyY9ociL-26" target="yjropSwCNwgdsyY9ociL-24">
          <mxGeometry width="50" height="50" relative="1" as="geometry">
            <mxPoint x="350" y="230" as="sourcePoint" />
            <mxPoint x="400" y="180" as="targetPoint" />
          </mxGeometry>
        </mxCell>
        <mxCell id="yjropSwCNwgdsyY9ociL-55" value="" style="endArrow=classic;html=1;rounded=0;exitX=0.5;exitY=1;exitDx=0;exitDy=0;entryX=0.25;entryY=0;entryDx=0;entryDy=0;" edge="1" parent="yjropSwCNwgdsyY9ociL-60" source="yjropSwCNwgdsyY9ociL-25" target="yjropSwCNwgdsyY9ociL-22">
          <mxGeometry width="50" height="50" relative="1" as="geometry">
            <mxPoint x="350" y="230" as="sourcePoint" />
            <mxPoint x="400" y="180" as="targetPoint" />
          </mxGeometry>
        </mxCell>
        <mxCell id="yjropSwCNwgdsyY9ociL-56" value="" style="endArrow=classic;html=1;rounded=0;exitX=1;exitY=0.75;exitDx=0;exitDy=0;entryX=0;entryY=0.5;entryDx=0;entryDy=0;" edge="1" parent="yjropSwCNwgdsyY9ociL-60" source="yjropSwCNwgdsyY9ociL-25" target="yjropSwCNwgdsyY9ociL-23">
          <mxGeometry width="50" height="50" relative="1" as="geometry">
            <mxPoint x="350" y="230" as="sourcePoint" />
            <mxPoint x="400" y="180" as="targetPoint" />
          </mxGeometry>
        </mxCell>
        <mxCell id="yjropSwCNwgdsyY9ociL-57" value="" style="endArrow=classic;html=1;rounded=0;entryX=0.5;entryY=0;entryDx=0;entryDy=0;exitX=0.5;exitY=1;exitDx=0;exitDy=0;" edge="1" parent="yjropSwCNwgdsyY9ociL-60" source="yjropSwCNwgdsyY9ociL-24" target="yjropSwCNwgdsyY9ociL-27">
          <mxGeometry width="50" height="50" relative="1" as="geometry">
            <mxPoint x="350" y="230" as="sourcePoint" />
            <mxPoint x="400" y="180" as="targetPoint" />
          </mxGeometry>
        </mxCell>
        <mxCell id="yjropSwCNwgdsyY9ociL-58" value="" style="endArrow=classic;html=1;rounded=0;exitX=1;exitY=1;exitDx=0;exitDy=0;entryX=0;entryY=0;entryDx=0;entryDy=0;" edge="1" parent="yjropSwCNwgdsyY9ociL-60" source="yjropSwCNwgdsyY9ociL-23" target="yjropSwCNwgdsyY9ociL-27">
          <mxGeometry width="50" height="50" relative="1" as="geometry">
            <mxPoint x="350" y="230" as="sourcePoint" />
            <mxPoint x="400" y="180" as="targetPoint" />
          </mxGeometry>
        </mxCell>
        <mxCell id="yjropSwCNwgdsyY9ociL-59" value="" style="endArrow=classic;html=1;rounded=0;exitX=1;exitY=0.5;exitDx=0;exitDy=0;" edge="1" parent="yjropSwCNwgdsyY9ociL-60" source="yjropSwCNwgdsyY9ociL-22" target="yjropSwCNwgdsyY9ociL-27">
          <mxGeometry width="50" height="50" relative="1" as="geometry">
            <mxPoint x="350" y="230" as="sourcePoint" />
            <mxPoint x="400" y="180" as="targetPoint" />
          </mxGeometry>
        </mxCell>
      </root>
    </mxGraphModel>
  </diagram>
</mxfile>
